<svg xmlns="http://www.w3.org/2000/svg" width="0" height="0" class="hidden">
 <symbol fill="none"  viewBox="0 0 125 75" id="OBJECTS">
    <path d="M31.8328 29.4882H88.3833V21.5069H31.8328V8.04223H88.3833V0.0609131H27.478C25.4539 0.0609131 23.7979 1.70592 23.7979 3.71648V43.0138H31.8328V29.4882Z" fill="#44C697"></path>
    <path d="M97.5835 0H93.1674V42.9529H101.202V3.65556C101.264 1.645 99.6075 0 97.5835 0Z" fill="#1E2E36"></path>
    <path d="M107.581 27.9651V49.2892H17.4191V27.9651H4.60016C2.0241 27.9651 6.10352e-05 30.0366 6.10352e-05 32.5345V44.6588C6.10352e-05 47.2177 2.08544 49.2283 4.60016 49.2283H7.54422L8.83225 64.2161V75H12.1443L16.0084 64.2161H108.992L112.856 75H116.168V64.2161L117.456 49.2283H120.4C122.976 49.2283 125 47.1568 125 44.6588V32.5345C125 29.9756 122.915 27.9651 120.4 27.9651H107.581Z" fill="#1E2E36"></path>
  </symbol>
  <symbol fill="none"  viewBox="0 0 125 75" id="OBJECTS-footer">
    <path d="M31.8328 29.4883H88.3833V21.507H31.8328V8.04236H88.3833V0.0610352H27.478C25.454 0.0610352 23.7979 1.70604 23.7979 3.7166V43.0139H31.8328V29.4883Z" fill="#44C697"></path>
    <path d="M97.5835 0H93.1674V42.9529H101.202V3.65556C101.264 1.645 99.6075 0 97.5835 0Z" fill="white"></path>
    <path d="M107.581 27.9648V49.289H17.4191V27.9648H4.60014C2.02409 27.9648 4.57764e-05 30.0363 4.57764e-05 32.5343V44.6586C4.57764e-05 47.2175 2.08542 49.2281 4.60014 49.2281H7.5442L8.83223 64.2159V74.9998H12.1443L16.0084 64.2159H108.992L112.856 74.9998H116.168V64.2159L117.456 49.2281H120.4C122.976 49.2281 125 47.1566 125 44.6586V32.5343C125 29.9754 122.915 27.9648 120.4 27.9648H107.581Z" fill="white"></path>
  </symbol>
  <symbol fill="none"  viewBox="0 0 24 24" id="chevron-right">
    <path fill-rule="evenodd" clip-rule="evenodd" d="M18.53 8.47a.75.75 0 0 1 0 1.06l-6 6a.75.75 0 0 1-1.06 0l-6-6a.75.75 0 0 1 1.06-1.06L12 13.94l5.47-5.47a.75.75 0 0 1 1.06 0Z" fill="#1E2E36"></path>
  </symbol>
  <symbol   viewBox="0 0 40 40" id="Facebook">
    <path  clip-rule="evenodd" d="M22.085 31.76V20.878h3.003l.398-3.75h-3.401l.005-1.876c0-.978.093-1.502 1.497-1.502h1.878V10h-3.004c-3.608 0-4.878 1.819-4.878 4.878v2.251h-2.25v3.75h2.25v10.88h4.502Z" ></path>
  </symbol>
  <symbol   viewBox="0 0 40 40" id="Instagram">
    <path  clip-rule="evenodd" d="M15.603 9.398c1.138-.052 1.501-.065 4.398-.065h-.003c2.897 0 3.26.013 4.397.065 1.136.052 1.912.232 2.592.495a5.212 5.212 0 0 1 1.889 1.23 5.235 5.235 0 0 1 1.23 1.89c.263.678.443 1.453.496 2.589.051 1.138.065 1.501.065 4.398s-.014 3.26-.065 4.398c-.053 1.135-.233 1.91-.495 2.588a5.237 5.237 0 0 1-1.232 1.89 5.219 5.219 0 0 1-1.888 1.23c-.678.265-1.454.444-2.59.496-1.138.052-1.5.065-4.397.065-2.897 0-3.26-.013-4.398-.065-1.136-.052-1.91-.231-2.59-.495a5.224 5.224 0 0 1-1.888-1.231 5.227 5.227 0 0 1-1.23-1.89c-.264-.678-.444-1.453-.496-2.589-.052-1.137-.065-1.5-.065-4.397 0-2.897.014-3.26.065-4.398.05-1.136.23-1.91.495-2.59a5.236 5.236 0 0 1 1.231-1.889 5.223 5.223 0 0 1 1.89-1.23c.678-.263 1.453-.443 2.589-.495Zm4.042 1.857h-.6v-.002c-1.989.002-2.37.015-3.354.06-1.04.048-1.605.221-1.98.368a3.311 3.311 0 0 0-1.228.798 3.305 3.305 0 0 0-.798 1.227c-.146.376-.32.94-.367 1.98-.051 1.125-.061 1.46-.061 4.309 0 2.848.01 3.186.06 4.31.048 1.04.222 1.605.368 1.98.194.499.425.853.798 1.227.374.373.73.604 1.227.797.376.146.94.32 1.98.368 1.125.051 1.463.063 4.311.063s3.186-.012 4.31-.063c1.04-.047 1.605-.22 1.98-.367a3.3 3.3 0 0 0 1.227-.798c.373-.373.604-.728.798-1.225.146-.376.32-.94.367-1.98.051-1.125.062-1.463.062-4.31 0-2.846-.01-3.184-.062-4.308-.047-1.04-.221-1.605-.367-1.98a3.311 3.311 0 0 0-.798-1.227 3.3 3.3 0 0 0-1.226-.798c-.376-.146-.94-.32-1.98-.367-1.125-.051-1.463-.061-4.31-.061h-.357ZM14.523 20a5.478 5.478 0 1 1 10.956 0 5.478 5.478 0 0 1-10.956 0Zm9.034 0a3.556 3.556 0 1 0-7.112 0 3.556 3.556 0 0 0 7.112 0Zm.858-5.694a1.28 1.28 0 1 1 2.56 0 1.28 1.28 0 0 1-2.56 0Z" ></path>
  </symbol>
  <symbol fill="none"  viewBox="0 0 31 32" id="Left">
    <path clip-rule="evenodd" d="M15.5 31c8.284 0 15-6.716 15-15 0-8.284-6.716-15-15-15C7.216 1 .5 7.716.5 16c0 8.284 6.716 15 15 15Z" stroke="#1E2E36"></path>
    <path d="M11.68 15.87c0-.21.08-.421.235-.582l4.92-5.047a.787.787 0 0 1 1.133 0 .837.837 0 0 1 0 1.162l-4.353 4.466 4.353 4.467a.837.837 0 0 1 0 1.162.787.787 0 0 1-1.133 0l-4.92-5.047a.831.831 0 0 1-.234-.582Z" fill="#1E2E36"></path>
  </symbol>
  <symbol fill="none" viewBox="0 0 31 30" id="Right">
    <path fill-rule="evenodd" clip-rule="evenodd" d="M15.5 30C23.7843 30 30.5 23.2843 30.5 15C30.5 6.71573 23.7843 0 15.5 0C7.21573 0 0.5 6.71573 0.5 15C0.5 23.2843 7.21573 30 15.5 30Z" fill="#1E2E36"></path>
    <path d="M19.383 14.8696C19.383 15.08 19.3064 15.2903 19.1534 15.4507L14.3386 20.4983C14.0324 20.8194 13.5358 20.8194 13.2296 20.4983C12.9235 20.1774 12.9235 19.6569 13.2296 19.3357L17.49 14.8696L13.2298 10.4034C12.9236 10.0823 12.9236 9.56188 13.2298 9.24094C13.5359 8.91969 14.0325 8.91969 14.3388 9.24094L19.1536 14.2884C19.3065 14.4489 19.383 14.6593 19.383 14.8696Z" fill="white"></path>
  </symbol>
  <symbol fill="none"  viewBox="0 0 35 26" id="01">
    <path d="M16.1775 23.596C14.6415 24.82 12.7815 25.432 10.5975 25.432C8.4135 25.432 6.5415 24.82 4.9815 23.596C3.4455 22.348 2.3415 20.812 1.6695 18.988C0.9975 17.164 0.6615 15.172 0.6615 13.012C0.6615 10.852 0.9975 8.86 1.6695 7.036C2.3415 5.212 3.4455 3.688 4.9815 2.464C6.5415 1.24 8.4135 0.627998 10.5975 0.627998C12.7815 0.627998 14.6415 1.24 16.1775 2.464C17.7135 3.688 18.8175 5.212 19.4895 7.036C20.1855 8.86 20.5335 10.852 20.5335 13.012C20.5335 15.172 20.1855 17.164 19.4895 18.988C18.8175 20.812 17.7135 22.348 16.1775 23.596ZM6.9975 18.736C7.7655 20.176 8.9655 20.896 10.5975 20.896C12.2295 20.896 13.4175 20.176 14.1615 18.736C14.9295 17.296 15.3135 15.388 15.3135 13.012C15.3135 10.636 14.9295 8.74 14.1615 7.324C13.4175 5.884 12.2295 5.164 10.5975 5.164C8.9655 5.164 7.7655 5.884 6.9975 7.324C6.2295 8.74 5.8455 10.636 5.8455 13.012C5.8455 15.388 6.2295 17.296 6.9975 18.736ZM34.1817 25H29.0697V7.576L25.0737 11.644L22.1577 8.584L29.7177 0.987998H34.1817V25Z" fill="#1E2E36"></path>
  </symbol>
  <symbol fill="none"  viewBox="0 0 44 18" id="04">
    <path d="M2.58691 17.48H0.378906L6.06691 0.511999H8.27491L2.58691 17.48ZM25.578 16.064C24.554 16.88 23.314 17.288 21.858 17.288C20.402 17.288 19.154 16.88 18.114 16.064C17.09 15.232 16.354 14.208 15.906 12.992C15.458 11.776 15.234 10.448 15.234 9.008C15.234 7.568 15.458 6.24 15.906 5.024C16.354 3.808 17.09 2.792 18.114 1.976C19.154 1.16 20.402 0.751999 21.858 0.751999C23.314 0.751999 24.554 1.16 25.578 1.976C26.602 2.792 27.338 3.808 27.786 5.024C28.25 6.24 28.482 7.568 28.482 9.008C28.482 10.448 28.25 11.776 27.786 12.992C27.338 14.208 26.602 15.232 25.578 16.064ZM19.458 12.824C19.97 13.784 20.77 14.264 21.858 14.264C22.946 14.264 23.738 13.784 24.234 12.824C24.746 11.864 25.002 10.592 25.002 9.008C25.002 7.424 24.746 6.16 24.234 5.216C23.738 4.256 22.946 3.776 21.858 3.776C20.77 3.776 19.97 4.256 19.458 5.216C18.946 6.16 18.69 7.424 18.69 9.008C18.69 10.592 18.946 11.864 19.458 12.824ZM40.9648 17H37.5568V13.688H29.9008V11L36.2608 0.991999H40.9648V10.688H43.0288V13.688H40.9648V17ZM37.5568 10.688V4.016L33.2368 10.688H37.5568Z" fill="#1E2E36"></path>
  </symbol>
  <symbol viewBox="0 0 100 100" id="kitchen"><g clip-path="url(#a)" >
      <path d="M67.788 91.13H32.212a1.172 1.172 0 0 1-1.172-1.171V62.713c0-.647.525-1.172 1.172-1.172h35.576c.647 0 1.172.524 1.172 1.172v27.245c0 .647-.525 1.171-1.172 1.171Zm-34.404-2.343h33.232V63.886H33.384v24.9Z"></path>
      <path d="M67.788 96.145H32.212a1.172 1.172 0 0 1-1.172-1.172v-5.015c0-.647.525-1.172 1.172-1.172h35.576c.647 0 1.172.525 1.172 1.172v5.015c0 .647-.525 1.172-1.172 1.172ZM33.384 93.8h33.232v-2.67H33.384v2.67ZM67.788 63.886H32.212a1.172 1.172 0 0 1-1.172-1.172V51.162c0-.647.525-1.172 1.172-1.172h35.576c.647 0 1.172.525 1.172 1.172v11.552c0 .647-.525 1.172-1.172 1.172Zm-34.404-2.344h33.232v-9.208H33.384v9.208Z"></path>
      <path d="M50 60.736a3.798 3.798 0 1 1 0-7.596 3.798 3.798 0 0 1 0 7.596Zm0-5.252a1.454 1.454 0 1 0 0 2.908 1.454 1.454 0 0 0 0-2.908ZM59.867 60.736a3.798 3.798 0 1 1 0-7.596 3.798 3.798 0 0 1 0 7.596Zm0-5.252a1.454 1.454 0 1 0 0 2.908 1.454 1.454 0 0 0 0-2.908ZM40.133 60.736a3.798 3.798 0 1 1 0-7.596 3.798 3.798 0 0 1 0 7.596Zm0-5.252a1.454 1.454 0 1 0 0 2.908 1.454 1.454 0 0 0 0-2.908ZM60.909 70.737H39.092a2.756 2.756 0 0 1 0-5.512h21.817a2.756 2.756 0 1 1 .002 5.512h-.002Zm-21.817-3.169a.412.412 0 0 0 0 .825h21.817a.412.412 0 1 0 0-.825H39.092Z"></path>
      <path d="M59.867 87.389H40.133a1.172 1.172 0 0 1-1.172-1.172V69.565c0-.647.525-1.172 1.172-1.172h19.734c.647 0 1.172.525 1.172 1.172v16.652c0 .647-.525 1.172-1.172 1.172Zm-18.562-2.344h17.39V70.737h-17.39v14.308ZM42.191 52.334a1.172 1.172 0 0 1-1.172-1.172v-2.908a1.172 1.172 0 0 1 2.344 0v2.908c0 .648-.524 1.172-1.172 1.172ZM47.747 52.334a1.172 1.172 0 0 1-1.172-1.172v-1.736h-1.563a1.172 1.172 0 0 1 0-2.344h2.735c.647 0 1.172.525 1.172 1.172v2.908c0 .648-.525 1.172-1.172 1.172ZM36.636 52.334a1.172 1.172 0 0 1-1.172-1.172v-2.908c0-.647.524-1.172 1.172-1.172h2.734a1.172 1.172 0 0 1 0 2.344h-1.563v1.736c0 .648-.524 1.172-1.171 1.172ZM57.809 52.334a1.172 1.172 0 0 1-1.172-1.172v-2.908a1.172 1.172 0 0 1 2.344 0v2.908c0 .648-.525 1.172-1.172 1.172ZM52.253 52.334a1.172 1.172 0 0 1-1.172-1.172v-2.908c0-.647.525-1.172 1.172-1.172h2.735a1.172 1.172 0 0 1 0 2.344h-1.563v1.736c0 .648-.524 1.172-1.172 1.172ZM63.364 52.334a1.172 1.172 0 0 1-1.171-1.172v-1.736H60.63a1.172 1.172 0 0 1 0-2.344h2.734c.648 0 1.172.525 1.172 1.172v2.908c0 .648-.524 1.172-1.172 1.172ZM73.452 56.602h-2.098a1.172 1.172 0 0 1 0-2.344h2.098a1.172 1.172 0 0 1 0 2.344Z"></path>
      <path d="M77.018 96.145h-9.23a1.172 1.172 0 0 1-1.172-1.172v-43.81c0-.648.525-1.172 1.172-1.172h9.23c.647 0 1.172.524 1.172 1.171v43.81c0 .648-.525 1.173-1.172 1.173ZM68.96 93.8h6.886V52.334H68.96v41.467Z"></path>
      <path d="M98.828 74.24h-21.81a1.172 1.172 0 0 1-1.172-1.172V51.162c0-.647.525-1.172 1.172-1.172h21.81c.647 0 1.172.525 1.172 1.172v21.906c0 .647-.525 1.172-1.172 1.172ZM78.19 71.896h19.466V52.334H78.19v19.562Z"></path>
      <path d="M90.734 56.602h-5.621a1.172 1.172 0 0 1 0-2.344h5.62a1.172 1.172 0 0 1 0 2.344ZM19.502 56.602h-5.62a1.172 1.172 0 0 1 0-2.344h5.62a1.172 1.172 0 0 1 0 2.344ZM98.828 96.145h-21.81a1.172 1.172 0 0 1-1.172-1.172V73.068c0-.647.525-1.172 1.172-1.172h21.81c.647 0 1.172.524 1.172 1.172v21.905c0 .647-.525 1.172-1.172 1.172ZM78.19 93.8h19.466V74.24H78.19V93.8Z"></path>
      <path d="M90.734 78.507h-5.621a1.172 1.172 0 0 1 0-2.344h5.62a1.172 1.172 0 0 1 0 2.344ZM16.692 96.145H1.172A1.172 1.172 0 0 1 0 94.973v-32.26c0-.646.525-1.171 1.172-1.171h15.52c.647 0 1.172.524 1.172 1.172v32.259c0 .647-.525 1.172-1.172 1.172ZM2.344 93.8H15.52V63.886H2.344V93.8Z"></path>
      <path d="M32.212 96.145h-15.52a1.172 1.172 0 0 1-1.172-1.172v-32.26c0-.646.525-1.171 1.172-1.171h15.52c.647 0 1.172.524 1.172 1.172v32.259c0 .647-.525 1.172-1.172 1.172ZM17.864 93.8H31.04V63.886H17.864V93.8Z"></path>
      <path d="M20.398 81.966a1.172 1.172 0 0 1-1.172-1.172v-3.901a1.172 1.172 0 0 1 2.343 0v3.901c0 .647-.524 1.172-1.171 1.172ZM12.986 81.966a1.172 1.172 0 0 1-1.171-1.172v-3.901a1.172 1.172 0 0 1 2.343 0v3.901c0 .647-.524 1.172-1.171 1.172ZM32.212 63.886H1.172A1.172 1.172 0 0 1 0 62.714V51.162c0-.647.525-1.172 1.172-1.172h31.04c.647 0 1.172.525 1.172 1.172v11.552c0 .647-.525 1.172-1.172 1.172ZM2.344 61.542H31.04v-9.208H2.344v9.208ZM66.467 27.777H33.533a2.496 2.496 0 0 1-2.493-2.493V21.92a2.495 2.495 0 0 1 2.493-2.493h32.934a2.496 2.496 0 0 1 2.493 2.493v3.365a2.496 2.496 0 0 1-2.493 2.493ZM33.533 21.77a.15.15 0 0 0-.15.149v3.365a.15.15 0 0 0 .15.15h32.934a.15.15 0 0 0 .15-.15V21.92a.15.15 0 0 0-.15-.15H33.533Z"></path>
      <path d="M64.024 21.77H35.976a2.47 2.47 0 0 1-1.522-4.414l.9-.705A14.668 14.668 0 0 0 41.02 5.028c0-.648.525-1.172 1.172-1.172h15.618c.647 0 1.172.524 1.172 1.172a14.667 14.667 0 0 0 5.664 11.623l.9.705a2.469 2.469 0 0 1-1.52 4.414ZM43.324 6.2a16.984 16.984 0 0 1-6.525 12.297l-.9.704a.126.126 0 0 0 .077.225h28.048a.126.126 0 0 0 .078-.224l-.9-.705A16.984 16.984 0 0 1 56.675 6.2H43.324ZM95.2 27.777H76.552a2.937 2.937 0 0 1 0-5.874H95.2a2.937 2.937 0 1 1 0 5.874Zm-18.648-3.53a.593.593 0 0 0 0 1.186H95.2a.593.593 0 0 0 0-1.186H76.552ZM23.448 27.777H4.8a2.937 2.937 0 0 1 0-5.874h18.648a2.937 2.937 0 1 1 0 5.874ZM4.8 24.247a.593.593 0 1 0 0 1.186h18.648a.593.593 0 1 0 0-1.186H4.8Z"></path>
      <path d="M21.577 24.247H16.81a1.172 1.172 0 0 1-1.171-1.172v-4.029c0-.647.524-1.171 1.171-1.171h4.767c.647 0 1.172.524 1.172 1.171v4.03c0 .646-.524 1.171-1.172 1.171Zm-3.595-2.344h2.424v-1.685h-2.424v1.685Z"></path>
      <path d="M22.7 20.218h-7.013a1.172 1.172 0 0 1 0-2.343h7.014a1.172 1.172 0 0 1 0 2.343ZM11.438 24.247H6.67A1.172 1.172 0 0 1 5.5 23.075v-4.029c0-.647.524-1.171 1.171-1.171h4.768c.647 0 1.171.524 1.171 1.171v4.03c0 .646-.524 1.171-1.171 1.171Zm-3.596-2.344h2.424v-1.685H7.842v1.685Z"></path>
      <path d="M12.56 20.218H5.548a1.172 1.172 0 0 1 0-2.343h7.013a1.172 1.172 0 1 1 0 2.343ZM21.577 20.218H16.81a1.172 1.172 0 0 1-1.171-1.172v-4.028c0-.648.524-1.172 1.171-1.172h4.767c.647 0 1.172.524 1.172 1.171v4.03c0 .646-.524 1.171-1.172 1.171Zm-3.595-2.344h2.424V16.19h-2.424v1.685Z"></path>
      <path d="M22.7 16.19h-7.013a1.172 1.172 0 0 1 0-2.344h7.014a1.172 1.172 0 0 1 0 2.343ZM11.438 20.218H6.67A1.172 1.172 0 0 1 5.5 19.046v-4.028c0-.648.524-1.172 1.171-1.172h4.768c.647 0 1.171.524 1.171 1.171v4.03c0 .646-.524 1.171-1.171 1.171Zm-3.596-2.344h2.424V16.19H7.842v1.685Z"></path>
      <path d="M12.56 16.19H5.548a1.172 1.172 0 0 1 0-2.344h7.013a1.172 1.172 0 1 1 0 2.343ZM85.876 24.247a7.564 7.564 0 0 1-6.405-11.587c.215-.34.59-.548.992-.548H91.29c.402 0 .776.207.991.548a7.564 7.564 0 0 1-6.404 11.587Zm-4.721-9.79a5.22 5.22 0 1 0 9.443 0h-9.443Z"></path>
      <path d="M85.767 14.456a1.172 1.172 0 0 1-1.172-1.172v-7.54a1.172 1.172 0 0 1 2.344 0v7.54c0 .647-.525 1.172-1.172 1.172Z"></path>
      <path d="M85.767 14.456a1.172 1.172 0 0 1-.829-2L88.993 8.4a1.172 1.172 0 0 1 1.657 1.657l-4.055 4.055c-.22.22-.517.344-.828.343Z"></path>
      <path d="M85.767 14.456c-.31 0-.61-.123-.829-.343l-4.055-4.055a1.172 1.172 0 1 1 1.64-1.675l.017.017 4.056 4.056a1.172 1.172 0 0 1-.83 2ZM60.857 49.426h-5.715a5.877 5.877 0 0 1-5.87-5.87V40.8c0-.647.525-1.172 1.172-1.172h15.111c.648 0 1.172.525 1.172 1.172v2.755a5.877 5.877 0 0 1-5.87 5.87Zm-9.241-7.453v1.583a3.53 3.53 0 0 0 3.526 3.527h5.715a3.53 3.53 0 0 0 3.527-3.527v-1.583H51.616Z"></path>
      <path d="M67.788 44.038h-2.233a1.172 1.172 0 0 1 0-2.343h2.233a1.172 1.172 0 1 1 0 2.343ZM50.062 44.038H47.83a1.172 1.172 0 0 1 0-2.343h2.232a1.172 1.172 0 0 1 0 2.343Z"></path>
      <path d="M65.555 41.973H50.444a1.172 1.172 0 0 1-.966-1.836c1.64-2.385 4.905-3.867 8.522-3.867s6.882 1.482 8.521 3.867a1.172 1.172 0 0 1-.966 1.836Zm-11.964-2.344h8.818a10.076 10.076 0 0 0-8.818 0Z"></path>
      <path d="M56.569 38.703c-.287 0-.565-.106-.779-.297a3.329 3.329 0 1 1 4.42 0 1.172 1.172 0 1 1-1.557-1.751.985.985 0 1 0-1.305 0 1.172 1.172 0 0 1-.78 2.047ZM13.903 52.334h-4.95a1.172 1.172 0 0 1-1.172-1.172V38.575c0-.647.525-1.171 1.172-1.171h4.95c.647 0 1.172.524 1.172 1.171v12.587c0 .648-.525 1.172-1.172 1.172Zm-3.778-2.343h2.606V39.747h-2.606v10.244Z"></path>
      <path d="M8.953 52.334h-4.95a1.172 1.172 0 0 1-1.171-1.172V38.575c0-.647.524-1.171 1.171-1.171h4.95c.647 0 1.172.524 1.172 1.171v12.587c0 .648-.525 1.172-1.172 1.172Zm-3.778-2.343h2.606V39.747H5.175v10.244ZM24.774 52.334h-2.21a4.056 4.056 0 0 1-4.05-4.05v-4.11c0-.647.524-1.172 1.171-1.172h7.968c.647 0 1.172.525 1.172 1.172v4.11a4.055 4.055 0 0 1-4.05 4.05Zm-3.916-6.988v2.937a1.709 1.709 0 0 0 1.707 1.707h2.21a1.709 1.709 0 0 0 1.707-1.707v-2.937h-5.624Z"></path>
      <path d="M28.339 45.346H19a2.216 2.216 0 0 1-2.213-2.213v-1.216A2.216 2.216 0 0 1 19 39.704h9.339a2.216 2.216 0 0 1 2.213 2.213v1.215a2.216 2.216 0 0 1-2.213 2.214Zm-9.209-2.344h9.079v-.955H19.13v.955ZM77.97 52.334h-6.034a1.172 1.172 0 0 1-1.172-1.172v-8.246c0-.647.525-1.172 1.172-1.172h6.034c.647 0 1.172.524 1.172 1.172v8.246c0 .648-.525 1.172-1.172 1.172Zm-4.862-2.344h3.69v-5.902h-3.69v5.902Z"></path>
      <path d="M77.97 44.087h-6.034a1.172 1.172 0 0 1-1.172-1.171v-3.603c0-.647.525-1.172 1.172-1.172h6.034c.647 0 1.172.525 1.172 1.172v3.603c0 .647-.525 1.172-1.172 1.172Zm-4.862-2.343h3.69v-1.259h-3.69v1.259ZM92.437 48.37c-1.915 0-3.414-1.842-3.414-4.195s1.5-4.196 3.414-4.196c1.915 0 3.414 1.843 3.414 4.196 0 2.353-1.5 4.196-3.414 4.196Zm0-6.047c-.505 0-1.07.792-1.07 1.852s.565 1.852 1.07 1.852c.505 0 1.07-.792 1.07-1.852s-.565-1.852-1.07-1.852Z"></path>
      <path d="M92.437 42.3c-.546 0-1.02-.377-1.142-.91l-1.791-7.813a3.01 3.01 0 1 1 5.867 0l-1.792 7.813c-.122.533-.596.91-1.142.91Zm0-10.061a.666.666 0 0 0-.649.814l.649 2.83.649-2.83a.666.666 0 0 0-.65-.814ZM84.008 42.3c-.546 0-1.02-.377-1.142-.91l-1.792-7.813a3.01 3.01 0 1 1 5.867 0L85.15 41.39c-.122.533-.596.91-1.142.91Zm0-10.061a.666.666 0 0 0-.649.814l.649 2.831.649-2.83a.666.666 0 0 0-.65-.815Z"></path>
      <path d="M86.7 46.088h-5.385a1.172 1.172 0 0 1-1.16-1.006 4.714 4.714 0 0 1 1.083-3.765c.757-.873 1.767-1.374 2.77-1.374 1.003 0 2.013.5 2.77 1.374a4.714 4.714 0 0 1 1.083 3.765 1.172 1.172 0 0 1-1.16 1.006Zm-4.165-2.344h2.945a2.274 2.274 0 0 0-.473-.892c-.298-.343-.69-.566-1-.566-.308 0-.7.222-.998.566a2.277 2.277 0 0 0-.474.892Z"></path>
    </g><defs><clipPath id="a"><path d="M0 0h100v100H0z"></path></clipPath></defs>
  </symbol>
  <symbol fill="none" viewBox="0 0 30 31" id="shopping-cart"><g clip-path="url(#a)" fill-rule="evenodd" clip-rule="evenodd" fill="#1E2E36">
    <path d="M11.25 26.438a.312.312 0 1 0 0 .624.312.312 0 0 0 0-.625Zm-2.188.312a2.188 2.188 0 1 1 4.376 0 2.188 2.188 0 0 1-4.376 0ZM25 26.438a.312.312 0 1 0 0 .624.312.312 0 0 0 0-.625Zm-2.188.312a2.188 2.188 0 1 1 4.376 0 2.188 2.188 0 0 1-4.375 0ZM.313 1.75c0-.518.42-.938.937-.938h5c.447 0 .832.316.92.754l1.1 5.496h20.48a.938.938 0 0 1 .92 1.114l-2 10.494a3.437 3.437 0 0 1-3.428 2.767H12.108a3.438 3.438 0 0 1-3.427-2.766L6.59 8.23a.932.932 0 0 1-.018-.089L5.482 2.687H1.25a.938.938 0 0 1-.938-.937Zm8.332 7.188 1.875 9.367a1.563 1.563 0 0 0 1.562 1.258H24.268a1.562 1.562 0 0 0 1.562-1.255v-.003l1.787-9.367H8.645Z"></path> </g><defs><clipPath id="a">
    <path fill="#fff" transform="translate(0 .5)" d="M0 0h30v30H0z"></path></clipPath></defs>
  </symbol>
  <symbol fill="none"  viewBox="0 0 24 24" id="smartphone">
    <path d="M17 2H7a2 2 0 0 0-2 2v16a2 2 0 0 0 2 2h10a2 2 0 0 0 2-2V4a2 2 0 0 0-2-2ZM12 18h.01"  stroke-width="1.5" stroke-linecap="round" stroke-linejoin="round"></path>
  </symbol>
  <symbol viewBox="0 0 40 40" id="Telegram">
    <path  clip-rule="evenodd" d="M16.674 24.069v-.001l9.273-8.369c.407-.361-.089-.537-.629-.21L13.873 22.71l-4.944-1.543c-1.068-.327-1.076-1.06.24-1.588l19.264-7.428c.88-.4 1.73.211 1.394 1.558l-3.281 15.46c-.23 1.099-.893 1.362-1.813.854l-4.998-3.692-2.402 2.336-.022.022c-.269.261-.491.478-.978.478l.34-5.098Z" ></path>
  </symbol>
  <symbol fill="none"  viewBox="0 0 20 21" id="Vector2">
    <path d="M11.107 0C6.03 1.728 1.747 5.25 0 10.5c1.726 5.19 5.97 8.752 11.107 10.5 4.569-3.554 7.06-6.409 8.893-10.5-2.63-1.782-3.736-2.7-5.869-5.458-2.857 1.34-5.345 2.9-7.548 5.401.79 1.137 2.104 2.197 3.165 3.07 1.547-1.148 2.727-2.266 3.49-3.225.48.591 1.02.984 1.535 1.313-1.33 2.281-2.821 3.534-4.663 4.73-2.767-1.477-4.99-4.035-6.072-6.198 2.026-3.371 5.204-5.647 8.815-6.915C12.268 2.184 11.5 1.22 11.107 0Z" fill="#FFD001"></path>
  </symbol>
  <symbol   viewBox="0 0 100 100" id="wardrobe"><g clip-path="url(#a)" ><path d="M93.545 42.075H6.455a1.172 1.172 0 0 1-1.172-1.172V15.43c0-.647.525-1.172 1.172-1.172h87.09c.647 0 1.172.524 1.172 1.172v25.472c0 .647-.525 1.172-1.172 1.172ZM7.627 39.73h84.746V16.602H7.627v23.129Z"></path>
    <path d="M93.545 67.547H6.455a1.172 1.172 0 0 1-1.172-1.172V40.903c0-.648.525-1.172 1.172-1.172h87.09c.647 0 1.172.524 1.172 1.172v25.472c0 .647-.525 1.172-1.172 1.172ZM7.627 65.203h84.746V42.075H7.627v23.128Z"></path>
    <path d="M93.545 93.019H6.455a1.172 1.172 0 0 1-1.172-1.172V66.375c0-.647.525-1.172 1.172-1.172h87.09c.647 0 1.172.525 1.172 1.172v25.472c0 .647-.525 1.172-1.172 1.172ZM7.627 90.675h84.746V67.547H7.627v23.128ZM52.192 29.339h-4.384a1.172 1.172 0 1 1 0-2.344h4.384a1.172 1.172 0 0 1 0 2.344ZM52.192 54.81h-4.384a1.172 1.172 0 1 1 0-2.343h4.384a1.172 1.172 0 0 1 0 2.344Z"></path>
    <path d="M52.192 80.283h-4.384a1.172 1.172 0 1 1 0-2.344h4.384a1.172 1.172 0 0 1 0 2.344ZM96.875 16.603H3.125A3.129 3.129 0 0 1 0 13.478v-3.372a3.129 3.129 0 0 1 3.125-3.125h93.75A3.129 3.129 0 0 1 100 10.106v3.372a3.129 3.129 0 0 1-3.125 3.125ZM3.125 9.325c-.431 0-.78.35-.781.781v3.372c0 .43.35.78.781.78h93.75c.431 0 .78-.35.781-.78v-3.372c0-.431-.35-.78-.781-.781H3.125Z"></path></g> <defs><clipPath id="a"> 
    <path fill="#fff" d="M0 0h100v100H0z"></path></clipPath></defs>
  </symbol>
  <symbol fill="none"  viewBox="0 0 24 24" id="calendar">
    <path  d="M5 4.75c-.69 0-1.25.56-1.25 1.25v14c0 .69.56 1.25 1.25 1.25h14c.69 0 1.25-.56 1.25-1.25V6c0-.69-.56-1.25-1.25-1.25H5ZM2.25 6A2.75 2.75 0 0 1 5 3.25h14A2.75 2.75 0 0 1 21.75 6v14A2.75 2.75 0 0 1 19 22.75H5A2.75 2.75 0 0 1 2.25 20V6Z" fill="#fff"></path>
    <path  d="M16 1.25a.75.75 0 0 1 .75.75v4a.75.75 0 0 1-1.5 0V2a.75.75 0 0 1 .75-.75ZM8 1.25a.75.75 0 0 1 .75.75v4a.75.75 0 0 1-1.5 0V2A.75.75 0 0 1 8 1.25ZM2.25 10A.75.75 0 0 1 3 9.25h18a.75.75 0 0 1 0 1.5H3a.75.75 0 0 1-.75-.75Z" fill="#fff"></path>
  </symbol>
  <symbol   viewBox="0 0 82 100" id="Group">
    <path d="M75.6851 33.7601H6.31492C5.66779 33.7601 5.14313 33.2354 5.14313 32.5883V8.24723C5.14313 7.6001 5.66779 7.07544 6.31492 7.07544H75.6851C76.3323 7.07544 76.8571 7.6001 76.8571 8.24723V32.5883C76.8569 33.2354 76.3323 33.7601 75.6851 33.7601ZM7.48671 31.4164H74.5132V9.41902H7.48671V31.4164Z" ></path>
    <path d="M70.3066 33.7601H11.693C11.0459 33.7601 10.5212 33.2354 10.5212 32.5883V13.6254C10.5212 12.9783 11.0459 12.4536 11.693 12.4536H70.3066C70.9538 12.4536 71.4786 12.9783 71.4786 13.6254V32.5881C71.4786 33.2354 70.9539 33.7601 70.3066 33.7601ZM12.865 31.4163H69.1349V14.7974H12.865V31.4163Z"></path>
    <path d="M37.4656 33.76H15.2274C12.6295 33.7571 10.5242 31.6517 10.5212 29.0539V17.1596C10.5241 14.5616 12.6295 12.4564 15.2274 12.4534H37.4656C40.0636 12.4562 42.1689 14.5616 42.1719 17.1596V29.0539C42.1689 31.6519 40.0636 33.7571 37.4656 33.76ZM15.2274 14.7973C13.9234 14.7988 12.8665 15.8556 12.8649 17.1598V29.0541C12.8665 30.3581 13.9232 31.415 15.2274 31.4164H37.4656C38.7697 31.415 39.8266 30.3581 39.8281 29.0541V17.1598C39.8266 15.8557 38.7699 14.7988 37.4656 14.7973H15.2274Z" ></path>
    <path d="M66.7723 33.76H44.5341C41.9361 33.7571 39.8309 31.6517 39.8278 29.0539V17.1596C39.8307 14.5616 41.9361 12.4564 44.5341 12.4534H66.7723C69.3703 12.4562 71.4755 14.5616 71.4785 17.1596V29.0539C71.4755 31.6519 69.3703 33.7571 66.7723 33.76ZM44.5341 14.7973C43.23 14.7988 42.1731 15.8556 42.1716 17.1598V29.0541C42.1731 30.3581 43.2299 31.415 44.5341 31.4164H66.7723C68.0763 31.415 69.1333 30.3581 69.1348 29.0541V17.1598C69.1333 15.8557 68.0765 14.7988 66.7723 14.7973H44.5341Z" ></path>
    <path d="M76.5331 92.9248H5.46671C2.8689 92.9218 0.763661 90.8167 0.76062 88.2187V36.1223C0.763661 33.5245 2.8689 31.4193 5.46671 31.4163H76.5331C79.131 31.4191 81.2363 33.5244 81.2393 36.1223V88.2187C81.2363 90.8165 79.131 92.9218 76.5331 92.9248ZM5.46671 33.76C4.16265 33.7614 3.10572 34.8183 3.1042 36.1223V88.2187C3.10572 89.5228 4.16248 90.5795 5.46671 90.5811H76.5331C77.8371 90.5795 78.8939 89.5228 78.8954 88.2187V36.1223C78.8939 34.8183 77.8371 33.7614 76.5331 33.76H5.46671Z" ></path>
    <path d="M76.9842 9.41893H5.01569C2.6667 9.41623 0.763323 7.51268 0.76062 5.16386V4.25507C0.763323 1.90625 2.6667 0.00270271 5.01569 0H76.9842C79.3332 0.00270271 81.2366 1.90625 81.2393 4.25507V5.16386C81.2366 7.51285 79.3331 9.41623 76.9842 9.41893ZM5.01569 2.34375C3.96063 2.34494 3.10556 3.20001 3.10437 4.25507V5.16386C3.10556 6.21893 3.96063 7.074 5.01569 7.07518H76.9842C78.0393 7.074 78.8944 6.21893 78.8956 5.16386V4.25507C78.8944 3.20001 78.0393 2.34494 76.9842 2.34375H5.01569Z" ></path>
    <path d="M76.9842 100H5.01569C2.6667 99.9973 0.763323 98.0937 0.76062 95.7449V94.8361C0.763323 92.4871 2.66687 90.5838 5.01569 90.5811H76.9842C79.3332 90.5838 81.2366 92.4873 81.2393 94.8361V95.7449C81.2366 98.0937 79.3331 99.9973 76.9842 100ZM5.01569 92.9248C3.96063 92.926 3.10556 93.7811 3.10437 94.8361V95.7449C3.10556 96.8 3.96063 97.655 5.01569 97.6562H76.9842C78.0393 97.655 78.8944 96.8 78.8956 95.7449V94.8361C78.8944 93.7811 78.0393 92.926 76.9842 92.9248H5.01569Z" ></path>
  </symbol>
  <symbol  viewBox="0 0 100 78" id="Group-1">
    <path d="M75.8968 41.6612H24.1031C21.6154 41.6583 19.5994 39.6424 19.5967 37.1547V4.63069C19.5996 2.14302 21.6154 0.12697 24.1031 0.124268H75.8968C78.3844 0.127139 80.4005 2.14302 80.4032 4.63069V37.1547C80.4005 39.6424 78.3846 41.6585 75.8968 41.6612ZM24.1031 2.46802C22.9092 2.46937 21.9418 3.43694 21.9404 4.63069V37.1547C21.9418 38.3487 22.9094 39.3161 24.1031 39.3174H75.8968C77.0907 39.3161 78.0581 38.3485 78.0594 37.1547V4.63069C78.0581 3.43677 77.0905 2.46937 75.8968 2.46802H24.1031Z"></path>
    <path d="M75.8968 70.8929H24.1031C21.6154 70.89 19.5994 68.8741 19.5967 66.3864V43.8241C19.5996 41.3364 21.6154 39.3203 24.1031 39.3176H75.8968C78.3844 39.3205 80.4005 41.3364 80.4032 43.8241V66.3864C80.4005 68.8741 78.3846 70.89 75.8968 70.8929ZM24.1031 41.6612C22.9092 41.6626 21.9418 42.6301 21.9404 43.8239V66.3863C21.9418 67.5802 22.9094 68.5476 24.1031 68.5489H75.8968C77.0907 68.5476 78.0581 67.58 78.0594 66.3863V43.8241C78.0581 42.6301 77.0905 41.6627 75.8968 41.6614H24.1031V41.6612Z" ></path>
    <path d="M95.4936 70.8928H82.5662C80.0785 70.8899 78.0625 68.874 78.0598 66.3864V26.8441C78.0626 24.3564 80.0785 22.3403 82.5662 22.3376H95.4936C97.9812 22.3405 99.9973 24.3564 100 26.8441V66.3862C99.9971 68.874 97.9812 70.8899 95.4936 70.8928ZM82.566 24.6814C81.3721 24.6828 80.4047 25.6503 80.4033 26.8441V66.3862C80.4047 67.5801 81.3723 68.5475 82.566 68.5489H95.4934C96.6873 68.5475 97.6547 67.5799 97.6561 66.3862V26.8441C97.6547 25.6502 96.6871 24.6828 95.4934 24.6814H82.566Z" ></path>
    <path d="M17.434 70.8928H4.5066C2.01875 70.8899 0.00287163 68.874 0 66.3862V26.8441C0.00287163 24.3564 2.01875 22.3403 4.50643 22.3376H17.4338C19.9215 22.3405 21.9375 24.3564 21.9402 26.8441V66.3862C21.9375 68.874 19.9217 70.8899 17.434 70.8928ZM4.50643 24.6814C3.31251 24.6828 2.34511 25.6503 2.34375 26.8441V66.3862C2.34511 67.5801 3.31267 68.5475 4.50643 68.5489H17.4338C18.6277 68.5475 19.5951 67.5799 19.5965 66.3862V26.8441C19.5951 25.6502 18.6276 24.6828 17.4338 24.6814H4.50643Z" ></path>
    <path d="M79.2314 56.2771H20.7685C20.1213 56.2771 19.5967 55.7524 19.5967 55.1053C19.5967 54.4582 20.1213 53.9333 20.7685 53.9333H79.2314C79.8785 53.9333 80.4034 54.458 80.4034 55.1053C80.4034 55.7526 79.8787 56.2771 79.2314 56.2771Z" ></path>
    <path d="M10.9701 77.8759C9.02871 77.8782 7.33597 76.5558 6.86857 74.6715L5.70472 70.0042C5.54796 69.3764 5.93006 68.7404 6.55776 68.5836C6.65067 68.5605 6.74594 68.5487 6.84154 68.5488H15.0987C15.7458 68.5488 16.2704 69.0733 16.2704 69.7205C16.2704 69.8161 16.2588 69.9115 16.2357 70.0042L15.0716 74.6715C14.6042 76.556 12.9115 77.8782 10.9701 77.8759ZM8.34155 70.8928L9.14256 74.1044C9.39425 75.1137 10.4166 75.7279 11.4258 75.4762C12.1015 75.3076 12.6291 74.7801 12.7976 74.1044L13.5987 70.8928H8.34155Z" ></path>
    <path d="M89.0298 77.876C87.0883 77.8783 85.3955 76.5559 84.9281 74.6716L83.7643 70.0045C83.6075 69.3766 83.9896 68.7406 84.6173 68.5839C84.7102 68.5607 84.8055 68.5489 84.9011 68.5491H93.1582C93.8053 68.5491 94.33 69.0736 94.33 69.7207C94.33 69.8163 94.3184 69.9118 94.2952 70.0045L93.1314 74.6716C92.664 76.5559 90.9712 77.8783 89.0298 77.876ZM86.4013 70.8928L87.2021 74.1043C87.4538 75.1136 88.4761 75.728 89.4854 75.4763C90.1613 75.3077 90.6888 74.7802 90.8574 74.1043L91.6582 70.8927L86.4013 70.8928Z" ></path>
  </symbol>
  <symbol   viewBox="0 0 100 100" id="wardrobe 1"><g clip-path="url(#clip0)"><path d="M82.7649 100H17.2349C16.5878 100 16.0631 99.4753 16.0631 98.828V1.17179C16.0631 0.524663 16.5878 0 17.2349 0H82.7649C83.412 0 83.9369 0.524663 83.9369 1.17179V98.828C83.9367 99.4753 83.412 100 82.7649 100ZM18.4069 97.6562H81.5929V2.34375H18.4069V97.6562Z" ></path>
      <path d="M49.9998 71.4942C49.3527 71.4942 48.8279 71.119 48.8279 70.6564V0.837839C48.8279 0.37517 49.3525 0 49.9998 0C50.6471 0 51.1716 0.37517 51.1716 0.837839V70.6562C51.1718 71.1189 50.6471 71.4942 49.9998 71.4942Z" ></path>
      <path d="M49.9998 100H17.2349C16.5878 100 16.0631 99.4753 16.0631 98.828V84.5751C16.0631 83.928 16.5878 83.4033 17.2349 83.4033H49.9998C50.6469 83.4033 51.1716 83.928 51.1716 84.5751V98.828C51.1718 99.4753 50.6471 100 49.9998 100ZM18.4069 97.6562H48.828V85.7471H18.4069V97.6562Z" f></path>
      <path d="M49.9998 85.7472H17.2349C16.5878 85.7472 16.0631 85.2225 16.0631 84.5752V70.3224C16.0631 69.6752 16.5878 69.1504 17.2349 69.1504H49.9998C50.6469 69.1504 51.1716 69.6751 51.1716 70.3224V84.5752C51.1718 85.2225 50.6471 85.7472 49.9998 85.7472ZM18.4067 83.4035H48.8279V71.4943H18.4069L18.4067 83.4035Z" ></path>
      <path d="M35.2667 78.6206H31.9681C31.3209 78.6206 30.7963 78.0959 30.7963 77.4488C30.7963 76.8017 31.3209 76.2769 31.9681 76.2769H35.2667C35.9138 76.2769 36.4385 76.8015 36.4385 77.4488C36.4385 78.0961 35.9138 78.6206 35.2667 78.6206Z" ></path>
      <path d="M43.0937 38.3537C42.4466 38.3537 41.9218 37.8291 41.9218 37.1819V34.3122C41.9218 33.665 42.4464 33.1404 43.0937 33.1404C43.741 33.1404 44.2655 33.665 44.2655 34.3122V37.1819C44.2655 37.8291 43.7408 38.3537 43.0937 38.3537Z" ></path>
      <path d="M56.906 52.607C56.2589 52.607 55.7343 52.0823 55.7343 51.435V48.5653C55.7343 47.9181 56.2589 47.3933 56.906 47.3933C57.5532 47.3933 58.078 47.918 58.078 48.5653V51.435C58.078 52.0823 57.5533 52.607 56.906 52.607Z" ></path>
      <path d="M35.2667 92.8735H31.9681C31.3209 92.8735 30.7963 92.3489 30.7963 91.7018C30.7963 91.0546 31.3209 90.5298 31.9681 90.5298H35.2667C35.9138 90.5298 36.4385 91.0545 36.4385 91.7018C36.4385 92.3491 35.9138 92.8735 35.2667 92.8735Z" ></path>
    </g><defs><clipPath id="clip0"><rect width="100" height="100" ></rect></clipPath> </defs>
  </symbol>
   <symbol   viewBox="0 0 100 84" id="roomm">
    <path d="M46.6655 79.1791H16.7647C14.2771 79.1763 12.261 77.1604 12.2583 74.6727V63.057C12.2612 60.5693 14.2771 58.5532 16.7647 58.5505H46.6655C49.1531 58.5534 51.1692 60.5693 51.1719 63.057V74.6727C51.169 77.1604 49.1531 79.1764 46.6655 79.1791ZM16.7647 60.8941C15.5708 60.8955 14.6032 61.863 14.6021 63.0568V74.6725C14.6034 75.8665 15.571 76.834 16.7647 76.8352H46.6655C47.8594 76.8338 48.8268 75.8663 48.8281 74.6725V63.0568C48.8268 61.8629 47.8592 60.8955 46.6655 60.8941H16.7647Z" ></path>
    <path d="M10.0955 79.1791H4.50643C2.01875 79.1764 0.00287163 77.1603 0 74.6726V52.4356C0.00287163 49.948 2.01875 47.9319 4.50643 47.9292H10.0953C12.583 47.9321 14.599 49.948 14.6017 52.4356V74.6726C14.599 77.1603 12.5831 79.1764 10.0955 79.1791ZM4.50643 50.273C3.31251 50.2743 2.34511 51.2417 2.34375 52.4356V74.6726C2.34511 75.8666 3.31267 76.834 4.50643 76.8353H10.0953C11.2892 76.834 12.2566 75.8664 12.258 74.6726V52.4356C12.2566 51.2417 11.2892 50.2741 10.0953 50.273H4.50643Z" ></path>
    <path d="M86.5699 70.0366H13.4301C12.783 70.0366 12.2583 69.512 12.2583 68.8648C12.2583 68.2177 12.783 67.6929 13.4301 67.6929H86.5701C87.2172 67.6929 87.7419 68.2175 87.7419 68.8648C87.7419 69.5121 87.2172 70.0366 86.5699 70.0366Z" ></path>
    <path d="M46.6655 60.894H16.7647C14.2771 60.8911 12.261 58.8753 12.2583 56.3876V38.5406C12.2612 36.0529 14.2771 34.0369 16.7647 34.0342H46.6655C49.1531 34.0371 51.1692 36.0529 51.1719 38.5406V56.3876C51.169 58.8753 49.1531 60.8913 46.6655 60.894ZM16.7647 36.3778C15.5708 36.3791 14.6032 37.3465 14.6021 38.5404V56.3874C14.6034 57.5813 15.571 58.5489 16.7647 58.5501H46.6655C47.8594 58.5487 48.8268 57.5812 48.8281 56.3874V38.5406C48.8268 37.3467 47.8592 36.3791 46.6655 36.3779L16.7647 36.3778Z" ></path>
    <path d="M83.2353 60.894H53.3345C50.8469 60.8911 48.8308 58.8753 48.8281 56.3876V38.5406C48.831 36.0529 50.8469 34.0369 53.3345 34.0342H83.2353C85.723 34.0371 87.739 36.0529 87.7417 38.5406V56.3876C87.739 58.8753 85.7231 60.8913 83.2353 60.894ZM53.3345 36.3778C52.1406 36.3791 51.1731 37.3467 51.1719 38.5404V56.3874C51.1732 57.5813 52.1408 58.5487 53.3345 58.5501H83.2353C84.4292 58.5487 85.3968 57.5812 85.398 56.3874V38.5406C85.3966 37.3467 84.429 36.3791 83.2353 36.3779L53.3345 36.3778Z" ></path>
    <path d="M83.2353 79.1791H53.3345C50.8469 79.1763 48.8308 77.1604 48.8281 74.6727V63.057C48.831 60.5693 50.8469 58.5532 53.3345 58.5505H83.2353C85.723 58.5534 87.739 60.5693 87.7417 63.057V74.6727C87.739 77.1604 85.7231 79.1764 83.2353 79.1791ZM53.3345 60.8941C52.1406 60.8955 51.1732 61.863 51.1719 63.0568V74.6725C51.1732 75.8665 52.1408 76.8338 53.3345 76.8352H83.2353C84.4292 76.8338 85.3968 75.8663 85.398 74.6725V63.0568C85.3966 61.8629 84.429 60.8953 83.2353 60.8941H53.3345Z" ></path>
    <path d="M95.4935 79.1791H89.9047C87.417 79.1762 85.401 77.1603 85.3983 74.6726V52.4356C85.4011 49.948 87.417 47.9319 89.9047 47.9292H95.4935C97.9812 47.9321 99.9973 49.948 100 52.4356V74.6726C99.9971 77.1603 97.9812 79.1764 95.4935 79.1791ZM89.9045 50.273C88.7106 50.2743 87.7432 51.2417 87.7418 52.4356V74.6726C87.7432 75.8666 88.7108 76.834 89.9045 76.8353H95.4934C96.6873 76.834 97.6549 75.8664 97.656 74.6725V52.4356C97.6547 51.2417 96.6873 50.2741 95.4934 50.273H89.9045Z" ></path>
    <path d="M52.7396 60.8941H47.2604C46.6133 60.8941 46.0886 60.3694 46.0886 59.7223C46.0886 59.0751 46.6133 58.5503 47.2604 58.5503H52.7396C53.3867 58.5503 53.9116 59.075 53.9116 59.7223C53.9116 60.3696 53.3867 60.8941 52.7396 60.8941Z" ></path>
    <path d="M71.4504 30.6387H28.5495C27.9024 30.6387 27.3777 30.1141 27.3777 29.4668V1.62467C27.3777 0.977544 27.9024 0.452881 28.5495 0.452881H71.4504C72.0976 0.452881 72.6222 0.977544 72.6222 1.62467V29.4668C72.6222 30.1139 72.0976 30.6387 71.4504 30.6387ZM29.7215 28.295H70.2787V2.79647H29.7215V28.295Z" ></path>
    <path d="M67.5469 26.735H32.4531C31.8059 26.735 31.2813 26.2104 31.2813 25.5631V5.52824C31.2813 4.88111 31.8059 4.35645 32.4531 4.35645H67.5469C68.1942 4.35645 68.7188 4.88111 68.7188 5.52824V25.5631C68.7187 26.2104 68.194 26.735 67.5469 26.735ZM33.625 24.3913H66.3751V6.7002H33.625V24.3913Z" ></path>
    <path d="M36.6535 22.4398C36.0063 22.4398 35.4815 21.9152 35.4815 21.268C35.4815 20.9572 35.605 20.6591 35.8247 20.4393L41.8511 14.4128C42.3087 13.9552 43.0508 13.9552 43.5084 14.4128L47.1655 18.0697C47.6231 18.5273 47.6231 19.2694 47.1655 19.727C46.7079 20.1846 45.9658 20.1846 45.5082 19.727L42.6798 16.8988L37.482 22.0966C37.2626 22.3167 36.9643 22.4402 36.6535 22.4398Z" ></path>
    <path d="M63.3461 22.3798C63.0352 22.3802 62.7369 22.2567 62.5175 22.0366C61.0915 20.6106 59.6655 19.1839 58.2395 17.7565C56.6337 16.1528 55.0292 14.5482 53.4259 12.9428L52.6742 12.1916C52.4374 11.955 52.2006 11.7183 51.9638 11.4817L45.4418 18.0036C44.9842 18.4612 44.2421 18.4612 43.7845 18.0036C43.3269 17.546 43.3269 16.804 43.7845 16.3464L51.1356 8.99534C51.3553 8.77558 51.6535 8.6521 51.9643 8.6521H51.9651C52.2763 8.65227 52.5744 8.77626 52.7942 8.99653C53.3057 9.50936 53.8178 10.0219 54.331 10.5339L55.0839 11.2862C56.6866 12.891 58.291 14.4954 59.8971 16.0994C61.3217 17.5261 62.7477 18.9528 64.1751 20.3795C64.6327 20.8371 64.6327 21.5791 64.1751 22.0368C63.9548 22.2563 63.6569 22.3798 63.3461 22.3798Z" ></path>
    <path d="M59.0688 18.1003C58.7582 18.1003 58.4602 17.9771 58.2405 17.7575C56.6334 16.1526 55.0285 14.5477 53.4256 12.9427C53.092 12.6087 52.9913 12.107 53.1704 11.6702C54.1886 9.18557 57.0281 7.99688 59.5128 9.01496C61.9974 10.0332 63.1861 12.8727 62.168 15.3574C61.6742 16.5623 60.7177 17.5189 59.5128 18.0126C59.372 18.0706 59.2212 18.1003 59.0688 18.1003ZM55.7176 11.921C56.8981 13.1026 58.0796 14.2841 59.2624 15.4658C60.3398 14.5854 60.4994 12.9984 59.619 11.921C58.7386 10.8437 57.1516 10.6841 56.0742 11.5645C55.9438 11.671 55.8242 11.7905 55.7176 11.921Z" ></path>
    <path d="M92.699 83.547C91.2829 83.5487 90.0485 82.5844 89.7074 81.21L88.9794 78.2906C88.8228 77.6626 89.2049 77.0266 89.8329 76.87C89.9257 76.8469 90.0209 76.8352 90.1165 76.8352H95.2814C95.9285 76.8352 96.4534 77.3599 96.4534 78.007C96.4534 78.1026 96.4417 78.1979 96.4186 78.2906L95.6905 81.21C95.3495 82.5844 94.115 83.5489 92.699 83.547ZM91.6165 79.179L91.9816 80.6428C92.0804 81.0389 92.4816 81.2801 92.8779 81.1813C93.1431 81.1151 93.3502 80.908 93.4164 80.6428L93.7814 79.1788L91.6165 79.179Z"></path>
    <path d="M7.30102 83.547C5.88497 83.5487 4.65051 82.5844 4.30946 81.21L3.58142 78.2906C3.42483 77.6626 3.80693 77.0266 4.43497 76.87C4.52771 76.8469 4.62298 76.8352 4.71859 76.8352H9.88346C10.5306 76.8352 11.0554 77.3599 11.0554 78.007C11.0554 78.1026 11.0438 78.1979 11.0206 78.2906L10.2926 81.21C9.95136 82.5844 8.7169 83.5489 7.30102 83.547ZM6.21859 79.179L6.58362 80.6428C6.68244 81.0389 7.08362 81.2801 7.47991 81.1813C7.74511 81.1151 7.95221 80.908 8.01842 80.6428L8.38346 79.1788L6.21859 79.179Z" ></path>
  </symbol>
  <symbol id="location" viewBox="0 0 27 32">
        <path  d="M13.333 2.333c-2.917 0-5.715 1.159-7.778 3.222s-3.222 4.861-3.222 7.778c0 4.265 2.766 8.354 5.726 11.479 1.46 1.541 2.923 2.801 4.022 3.676 0.51 0.406 0.939 0.728 1.252 0.955 0.313-0.227 0.742-0.549 1.252-0.955 1.099-0.875 2.562-2.135 4.022-3.676 2.96-3.125 5.726-7.214 5.726-11.479 0-2.917-1.159-5.715-3.222-7.778s-4.861-3.222-7.778-3.222zM13.333 30.667c-0.555 0.832-0.555 0.832-0.555 0.832l-0.041-0.028c-0.025-0.017-0.061-0.042-0.108-0.074-0.093-0.064-0.227-0.159-0.397-0.281-0.339-0.245-0.821-0.603-1.397-1.062-1.151-0.916-2.688-2.239-4.228-3.865-3.040-3.209-6.274-7.786-6.274-12.854 0-3.448 1.37-6.754 3.808-9.192s5.745-3.808 9.192-3.808c3.448 0 6.754 1.37 9.192 3.808s3.808 5.745 3.808 9.192c0 5.069-3.234 9.646-6.274 12.854-1.54 1.626-3.077 2.949-4.228 3.865-0.576 0.459-1.057 0.817-1.397 1.062-0.17 0.123-0.304 0.217-0.397 0.281-0.047 0.032-0.083 0.057-0.108 0.074l-0.038 0.025-0.003 0.002c0 0-0.001 0.001-0.556-0.831zM13.333 30.667l0.555 0.832c-0.336 0.224-0.774 0.224-1.11-0l0.555-0.832z"></path>
        <path  d="M13.333 10.333c-1.657 0-3 1.343-3 3s1.343 3 3 3c1.657 0 3-1.343 3-3s-1.343-3-3-3zM8.333 13.333c0-2.761 2.239-5 5-5s5 2.239 5 5c0 2.761-2.239 5-5 5s-5-2.239-5-5z"></path>
      </symbol>
      <symbol id="time" viewBox="0 0 29 32">
        <path d="M4.364 5.455c-1.004 0-1.818 0.814-1.818 1.818v20.364c0 1.004 0.814 1.818 1.818 1.818h20.364c1.004 0 1.818-0.814 1.818-1.818v-20.364c0-1.004-0.814-1.818-1.818-1.818h-20.364zM0.364 7.273c0-2.209 1.791-4 4-4h20.364c2.209 0 4 1.791 4 4v20.364c0 2.209-1.791 4-4 4h-20.364c-2.209 0-4-1.791-4-4v-20.364z"></path>
        <path d="M20.364 0.364c0.602 0 1.091 0.488 1.091 1.091v5.818c0 0.603-0.488 1.091-1.091 1.091s-1.091-0.488-1.091-1.091v-5.818c0-0.603 0.488-1.091 1.091-1.091z"></path>
        <path d="M8.727 0.364c0.602 0 1.091 0.488 1.091 1.091v5.818c0 0.603-0.488 1.091-1.091 1.091s-1.091-0.488-1.091-1.091v-5.818c0-0.603 0.488-1.091 1.091-1.091z"></path>
        <path d="M0.364 13.091c0-0.602 0.488-1.091 1.091-1.091h26.182c0.602 0 1.091 0.488 1.091 1.091s-0.488 1.091-1.091 1.091h-26.182c-0.603 0-1.091-0.488-1.091-1.091z"></path>
      </symbol>
      <symbol id="phone" viewBox="0 0 32 32">
        <path   stroke-linejoin="round" stroke-linecap="round" stroke-miterlimit="4" stroke-width="2" d="M22.667 2.667h-13.333c-1.473 0-2.667 1.194-2.667 2.667v21.333c0 1.473 1.194 2.667 2.667 2.667h13.333c1.473 0 2.667-1.194 2.667-2.667v-21.333c0-1.473-1.194-2.667-2.667-2.667z"></path>
        <path   stroke-linejoin="round" stroke-linecap="round" stroke-miterlimit="4" stroke-width="2" d="M16 24h0.013"></path>
      </symbol>
    <symbol xmlns="http://www.w3.org/2000/svg"  viewBox="0 0 100 100" id="living-room"><g clip-path="url(#clip0)"> <path d="M46.6655 87.1791H16.7647C14.2771 87.1763 12.261 85.1604 12.2583 82.6727V71.057C12.2612 68.5693 14.2771 66.5532 16.7647 66.5505H46.6655C49.1531 66.5534 51.1692 68.5693 51.1719 71.057V82.6727C51.169 85.1604 49.1531 87.1764 46.6655 87.1791ZM16.7647 68.8941C15.5708 68.8955 14.6032 69.863 14.6021 71.0568V82.6725C14.6034 83.8665 15.571 84.834 16.7647 84.8352H46.6655C47.8594 84.8338 48.8268 83.8663 48.8281 82.6725V71.0568C48.8268 69.8629 47.8592 68.8955 46.6655 68.8941H16.7647Z" ></path>
      <path d="M10.0955 87.1791H4.50643C2.01875 87.1764 0.00287163 85.1603 0 82.6726V60.4356C0.00287163 57.948 2.01875 55.9319 4.50643 55.9292H10.0953C12.583 55.9321 14.599 57.948 14.6017 60.4356V82.6726C14.599 85.1603 12.5831 87.1764 10.0955 87.1791ZM4.50643 58.273C3.31251 58.2743 2.34511 59.2417 2.34375 60.4356V82.6726C2.34511 83.8666 3.31267 84.834 4.50643 84.8353H10.0953C11.2892 84.834 12.2566 83.8664 12.258 82.6726V60.4356C12.2566 59.2417 11.2892 58.2741 10.0953 58.273H4.50643Z" ></path>
      <path d="M86.5699 78.0366H13.4301C12.783 78.0366 12.2583 77.512 12.2583 76.8648C12.2583 76.2177 12.783 75.6929 13.4301 75.6929H86.5701C87.2172 75.6929 87.7419 76.2175 87.7419 76.8648C87.7419 77.5121 87.2172 78.0366 86.5699 78.0366Z" ></path>
      <path d="M46.6655 68.894H16.7647C14.2771 68.8911 12.261 66.8753 12.2583 64.3876V46.5406C12.2612 44.0529 14.2771 42.0369 16.7647 42.0342H46.6655C49.1531 42.0371 51.1692 44.0529 51.1719 46.5406V64.3876C51.169 66.8753 49.1531 68.8913 46.6655 68.894ZM16.7647 44.3778C15.5708 44.3791 14.6032 45.3465 14.6021 46.5404V64.3874C14.6034 65.5813 15.571 66.5489 16.7647 66.5501H46.6655C47.8594 66.5487 48.8268 65.5812 48.8281 64.3874V46.5406C48.8268 45.3467 47.8592 44.3791 46.6655 44.3779L16.7647 44.3778Z" ></path>
      <path d="M83.2353 68.894H53.3345C50.8469 68.8911 48.8308 66.8753 48.8281 64.3876V46.5406C48.831 44.0529 50.8469 42.0369 53.3345 42.0342H83.2353C85.723 42.0371 87.739 44.0529 87.7417 46.5406V64.3876C87.739 66.8753 85.7231 68.8913 83.2353 68.894ZM53.3345 44.3778C52.1406 44.3791 51.1731 45.3467 51.1719 46.5404V64.3874C51.1732 65.5813 52.1408 66.5487 53.3345 66.5501H83.2353C84.4292 66.5487 85.3968 65.5812 85.398 64.3874V46.5406C85.3966 45.3467 84.429 44.3791 83.2353 44.3779L53.3345 44.3778Z" ></path>
      <path d="M83.2353 87.1791H53.3345C50.8469 87.1763 48.8308 85.1604 48.8281 82.6727V71.057C48.831 68.5693 50.8469 66.5532 53.3345 66.5505H83.2353C85.723 66.5534 87.739 68.5693 87.7417 71.057V82.6727C87.739 85.1604 85.7231 87.1764 83.2353 87.1791ZM53.3345 68.8941C52.1406 68.8955 51.1732 69.863 51.1719 71.0568V82.6725C51.1732 83.8665 52.1408 84.8338 53.3345 84.8352H83.2353C84.4292 84.8338 85.3968 83.8663 85.398 82.6725V71.0568C85.3966 69.8629 84.429 68.8953 83.2353 68.8941H53.3345Z" ></path>
      <path d="M95.4935 87.1791H89.9047C87.417 87.1762 85.401 85.1603 85.3983 82.6726V60.4356C85.4011 57.948 87.417 55.9319 89.9047 55.9292H95.4935C97.9812 55.9321 99.9973 57.948 100 60.4356V82.6726C99.9971 85.1603 97.9812 87.1764 95.4935 87.1791ZM89.9045 58.273C88.7106 58.2743 87.7432 59.2417 87.7418 60.4356V82.6726C87.7432 83.8666 88.7108 84.834 89.9045 84.8353H95.4934C96.6873 84.834 97.6549 83.8664 97.656 82.6725V60.4356C97.6547 59.2417 96.6873 58.2741 95.4934 58.273H89.9045Z" ></path>
      <path d="M52.7396 68.8941H47.2604C46.6133 68.8941 46.0886 68.3694 46.0886 67.7223C46.0886 67.0751 46.6133 66.5503 47.2604 66.5503H52.7396C53.3867 66.5503 53.9116 67.075 53.9116 67.7223C53.9116 68.3696 53.3867 68.8941 52.7396 68.8941Z" ></path>
      <path d="M71.4504 38.6387H28.5495C27.9024 38.6387 27.3777 38.1141 27.3777 37.4668V9.62467C27.3777 8.97754 27.9024 8.45288 28.5495 8.45288H71.4504C72.0976 8.45288 72.6222 8.97754 72.6222 9.62467V37.4668C72.6222 38.1139 72.0976 38.6387 71.4504 38.6387ZM29.7215 36.295H70.2787V10.7965H29.7215V36.295Z" ></path>
      <path d="M67.5469 34.735H32.4531C31.8059 34.735 31.2813 34.2104 31.2813 33.5631V13.5282C31.2813 12.8811 31.8059 12.3564 32.4531 12.3564H67.5469C68.1942 12.3564 68.7188 12.8811 68.7188 13.5282V33.5631C68.7187 34.2104 68.194 34.735 67.5469 34.735ZM33.625 32.3913H66.3751V14.7002H33.625V32.3913Z" ></path>
      <path d="M36.6535 30.4398C36.0063 30.4398 35.4815 29.9152 35.4815 29.268C35.4815 28.9572 35.605 28.6591 35.8247 28.4393L41.8511 22.4128C42.3087 21.9552 43.0508 21.9552 43.5084 22.4128L47.1655 26.0697C47.6231 26.5273 47.6231 27.2694 47.1655 27.727C46.7079 28.1846 45.9658 28.1846 45.5082 27.727L42.6798 24.8988L37.482 30.0966C37.2626 30.3167 36.9643 30.4402 36.6535 30.4398Z" ></path>
      <path d="M63.3461 30.3798C63.0352 30.3802 62.7369 30.2567 62.5175 30.0366C61.0915 28.6106 59.6655 27.1839 58.2395 25.7565C56.6337 24.1528 55.0292 22.5482 53.4259 20.9428L52.6742 20.1916C52.4374 19.955 52.2006 19.7183 51.9638 19.4817L45.4418 26.0036C44.9842 26.4612 44.2421 26.4612 43.7845 26.0036C43.3269 25.546 43.3269 24.804 43.7845 24.3464L51.1356 16.9953C51.3553 16.7756 51.6535 16.6521 51.9643 16.6521H51.9651C52.2763 16.6523 52.5744 16.7763 52.7942 16.9965C53.3057 17.5094 53.8178 18.0219 54.331 18.5339L55.0839 19.2862C56.6866 20.891 58.291 22.4954 59.8971 24.0994C61.3217 25.5261 62.7477 26.9528 64.1751 28.3795C64.6327 28.8371 64.6327 29.5791 64.1751 30.0368C63.9548 30.2563 63.6569 30.3798 63.3461 30.3798Z" ></path>
      <path d="M59.0688 26.1003C58.7582 26.1003 58.4602 25.9771 58.2405 25.7575C56.6334 24.1526 55.0285 22.5477 53.4256 20.9427C53.092 20.6087 52.9913 20.107 53.1704 19.6702C54.1886 17.1856 57.0281 15.9969 59.5128 17.015C61.9974 18.0332 63.1861 20.8727 62.168 23.3574C61.6742 24.5623 60.7177 25.5189 59.5128 26.0126C59.372 26.0706 59.2212 26.1003 59.0688 26.1003ZM55.7176 19.921C56.8981 21.1026 58.0796 22.2841 59.2624 23.4658C60.3398 22.5854 60.4994 20.9984 59.619 19.921C58.7386 18.8437 57.1516 18.6841 56.0742 19.5645C55.9438 19.671 55.8242 19.7905 55.7176 19.921Z" ></path>
      <path d="M92.699 91.547C91.2829 91.5487 90.0485 90.5844 89.7074 89.21L88.9794 86.2906C88.8228 85.6626 89.2049 85.0266 89.8329 84.87C89.9257 84.8469 90.0209 84.8352 90.1165 84.8352H95.2814C95.9285 84.8352 96.4534 85.3599 96.4534 86.007C96.4534 86.1026 96.4417 86.1979 96.4186 86.2906L95.6905 89.21C95.3495 90.5844 94.115 91.5489 92.699 91.547ZM91.6165 87.179L91.9816 88.6428C92.0804 89.0389 92.4816 89.2801 92.8779 89.1813C93.1431 89.1151 93.3502 88.908 93.4164 88.6428L93.7814 87.1788L91.6165 87.179Z" ></path>
      <path d="M7.30102 91.547C5.88497 91.5487 4.65051 90.5844 4.30946 89.21L3.58142 86.2906C3.42483 85.6626 3.80693 85.0266 4.43497 84.87C4.52771 84.8469 4.62298 84.8352 4.71859 84.8352H9.88346C10.5306 84.8352 11.0554 85.3599 11.0554 86.007C11.0554 86.1026 11.0438 86.1979 11.0206 86.2906L10.2926 89.21C9.95136 90.5844 8.7169 91.5489 7.30102 91.547ZM6.21859 87.179L6.58362 88.6428C6.68244 89.0389 7.08362 89.2801 7.47991 89.1813C7.74511 89.1151 7.95221 88.908 8.01842 88.6428L8.38346 87.1788L6.21859 87.179Z" ></path>
    </g><defs><clipPath id="clip0"><rect width="100" height="100" ></rect></clipPath> </defs>
  </symbol>

</svg>
