<svg width="0" height="0" class="hidden">
  <symbol fill="none" xmlns="http://www.w3.org/2000/svg" viewBox="0 0 24 24" id="chevron-right">
    <path fill-rule="evenodd" clip-rule="evenodd" d="M18.53 8.47a.75.75 0 0 1 0 1.06l-6 6a.75.75 0 0 1-1.06 0l-6-6a.75.75 0 0 1 1.06-1.06L12 13.94l5.47-5.47a.75.75 0 0 1 1.06 0Z" fill="#1E2E36"></path>
  </symbol>
  <symbol fill="none" xmlns="http://www.w3.org/2000/svg" viewBox="0 0 40 40" id="Facebook">
    <path fill-rule="evenodd" clip-rule="evenodd" d="M22.085 31.76V20.878h3.003l.398-3.75h-3.401l.005-1.876c0-.978.093-1.502 1.497-1.502h1.878V10h-3.004c-3.608 0-4.878 1.819-4.878 4.878v2.251h-2.25v3.75h2.25v10.88h4.502Z" fill="#1E2E36"></path>
  </symbol>
  <symbol fill="none" xmlns="http://www.w3.org/2000/svg" viewBox="0 0 40 40" id="Instagram">
    <path fill-rule="evenodd" clip-rule="evenodd" d="M15.603 9.398c1.138-.052 1.501-.065 4.398-.065h-.003c2.897 0 3.26.013 4.397.065 1.136.052 1.912.232 2.592.495a5.212 5.212 0 0 1 1.889 1.23 5.235 5.235 0 0 1 1.23 1.89c.263.678.443 1.453.496 2.589.051 1.138.065 1.501.065 4.398s-.014 3.26-.065 4.398c-.053 1.135-.233 1.91-.495 2.588a5.237 5.237 0 0 1-1.232 1.89 5.219 5.219 0 0 1-1.888 1.23c-.678.265-1.454.444-2.59.496-1.138.052-1.5.065-4.397.065-2.897 0-3.26-.013-4.398-.065-1.136-.052-1.91-.231-2.59-.495a5.224 5.224 0 0 1-1.888-1.231 5.227 5.227 0 0 1-1.23-1.89c-.264-.678-.444-1.453-.496-2.589-.052-1.137-.065-1.5-.065-4.397 0-2.897.014-3.26.065-4.398.05-1.136.23-1.91.495-2.59a5.236 5.236 0 0 1 1.231-1.889 5.223 5.223 0 0 1 1.89-1.23c.678-.263 1.453-.443 2.589-.495Zm4.042 1.857h-.6v-.002c-1.989.002-2.37.015-3.354.06-1.04.048-1.605.221-1.98.368a3.311 3.311 0 0 0-1.228.798 3.305 3.305 0 0 0-.798 1.227c-.146.376-.32.94-.367 1.98-.051 1.125-.061 1.46-.061 4.309 0 2.848.01 3.186.06 4.31.048 1.04.222 1.605.368 1.98.194.499.425.853.798 1.227.374.373.73.604 1.227.797.376.146.94.32 1.98.368 1.125.051 1.463.063 4.311.063s3.186-.012 4.31-.063c1.04-.047 1.605-.22 1.98-.367a3.3 3.3 0 0 0 1.227-.798c.373-.373.604-.728.798-1.225.146-.376.32-.94.367-1.98.051-1.125.062-1.463.062-4.31 0-2.846-.01-3.184-.062-4.308-.047-1.04-.221-1.605-.367-1.98a3.311 3.311 0 0 0-.798-1.227 3.3 3.3 0 0 0-1.226-.798c-.376-.146-.94-.32-1.98-.367-1.125-.051-1.463-.061-4.31-.061h-.357ZM14.523 20a5.478 5.478 0 1 1 10.956 0 5.478 5.478 0 0 1-10.956 0Zm9.034 0a3.556 3.556 0 1 0-7.112 0 3.556 3.556 0 0 0 7.112 0Zm.858-5.694a1.28 1.28 0 1 1 2.56 0 1.28 1.28 0 0 1-2.56 0Z" fill="#1E2E36"></path>
  </symbol>
  <symbol fill="none" xmlns="http://www.w3.org/2000/svg" viewBox="0 0 31 32" id="Left">
    <path clip-rule="evenodd" d="M15.5 31c8.284 0 15-6.716 15-15 0-8.284-6.716-15-15-15C7.216 1 .5 7.716.5 16c0 8.284 6.716 15 15 15Z" stroke="#1E2E36"></path>
    <path d="M11.68 15.87c0-.21.08-.421.235-.582l4.92-5.047a.787.787 0 0 1 1.133 0 .837.837 0 0 1 0 1.162l-4.353 4.466 4.353 4.467a.837.837 0 0 1 0 1.162.787.787 0 0 1-1.133 0l-4.92-5.047a.831.831 0 0 1-.234-.582Z" fill="#1E2E36"></path>
  </symbol>
  <symbol fill="none" xmlns="http://www.w3.org/2000/svg" viewBox="0 0 100 100" id="kitchen 1">
    <g clip-path="url(#a)" fill="#1E2E36">
      <path d="M67.788 91.13H32.212a1.172 1.172 0 0 1-1.172-1.171V62.713c0-.647.525-1.172 1.172-1.172h35.576c.647 0 1.172.524 1.172 1.172v27.245c0 .647-.525 1.171-1.172 1.171Zm-34.404-2.343h33.232V63.886H33.384v24.9Z"></path>
      <path d="M67.788 96.145H32.212a1.172 1.172 0 0 1-1.172-1.172v-5.015c0-.647.525-1.172 1.172-1.172h35.576c.647 0 1.172.525 1.172 1.172v5.015c0 .647-.525 1.172-1.172 1.172ZM33.384 93.8h33.232v-2.67H33.384v2.67ZM67.788 63.886H32.212a1.172 1.172 0 0 1-1.172-1.172V51.162c0-.647.525-1.172 1.172-1.172h35.576c.647 0 1.172.525 1.172 1.172v11.552c0 .647-.525 1.172-1.172 1.172Zm-34.404-2.344h33.232v-9.208H33.384v9.208Z"></path>
      <path d="M50 60.736a3.798 3.798 0 1 1 0-7.596 3.798 3.798 0 0 1 0 7.596Zm0-5.252a1.454 1.454 0 1 0 0 2.908 1.454 1.454 0 0 0 0-2.908ZM59.867 60.736a3.798 3.798 0 1 1 0-7.596 3.798 3.798 0 0 1 0 7.596Zm0-5.252a1.454 1.454 0 1 0 0 2.908 1.454 1.454 0 0 0 0-2.908ZM40.133 60.736a3.798 3.798 0 1 1 0-7.596 3.798 3.798 0 0 1 0 7.596Zm0-5.252a1.454 1.454 0 1 0 0 2.908 1.454 1.454 0 0 0 0-2.908ZM60.909 70.737H39.092a2.756 2.756 0 0 1 0-5.512h21.817a2.756 2.756 0 1 1 .002 5.512h-.002Zm-21.817-3.169a.412.412 0 0 0 0 .825h21.817a.412.412 0 1 0 0-.825H39.092Z"></path>
      <path d="M59.867 87.389H40.133a1.172 1.172 0 0 1-1.172-1.172V69.565c0-.647.525-1.172 1.172-1.172h19.734c.647 0 1.172.525 1.172 1.172v16.652c0 .647-.525 1.172-1.172 1.172Zm-18.562-2.344h17.39V70.737h-17.39v14.308ZM42.191 52.334a1.172 1.172 0 0 1-1.172-1.172v-2.908a1.172 1.172 0 0 1 2.344 0v2.908c0 .648-.524 1.172-1.172 1.172ZM47.747 52.334a1.172 1.172 0 0 1-1.172-1.172v-1.736h-1.563a1.172 1.172 0 0 1 0-2.344h2.735c.647 0 1.172.525 1.172 1.172v2.908c0 .648-.525 1.172-1.172 1.172ZM36.636 52.334a1.172 1.172 0 0 1-1.172-1.172v-2.908c0-.647.524-1.172 1.172-1.172h2.734a1.172 1.172 0 0 1 0 2.344h-1.563v1.736c0 .648-.524 1.172-1.171 1.172ZM57.809 52.334a1.172 1.172 0 0 1-1.172-1.172v-2.908a1.172 1.172 0 0 1 2.344 0v2.908c0 .648-.525 1.172-1.172 1.172ZM52.253 52.334a1.172 1.172 0 0 1-1.172-1.172v-2.908c0-.647.525-1.172 1.172-1.172h2.735a1.172 1.172 0 0 1 0 2.344h-1.563v1.736c0 .648-.524 1.172-1.172 1.172ZM63.364 52.334a1.172 1.172 0 0 1-1.171-1.172v-1.736H60.63a1.172 1.172 0 0 1 0-2.344h2.734c.648 0 1.172.525 1.172 1.172v2.908c0 .648-.524 1.172-1.172 1.172ZM73.452 56.602h-2.098a1.172 1.172 0 0 1 0-2.344h2.098a1.172 1.172 0 0 1 0 2.344Z"></path>
      <path d="M77.018 96.145h-9.23a1.172 1.172 0 0 1-1.172-1.172v-43.81c0-.648.525-1.172 1.172-1.172h9.23c.647 0 1.172.524 1.172 1.171v43.81c0 .648-.525 1.173-1.172 1.173ZM68.96 93.8h6.886V52.334H68.96v41.467Z"></path>
      <path d="M98.828 74.24h-21.81a1.172 1.172 0 0 1-1.172-1.172V51.162c0-.647.525-1.172 1.172-1.172h21.81c.647 0 1.172.525 1.172 1.172v21.906c0 .647-.525 1.172-1.172 1.172ZM78.19 71.896h19.466V52.334H78.19v19.562Z"></path>
      <path d="M90.734 56.602h-5.621a1.172 1.172 0 0 1 0-2.344h5.62a1.172 1.172 0 0 1 0 2.344ZM19.502 56.602h-5.62a1.172 1.172 0 0 1 0-2.344h5.62a1.172 1.172 0 0 1 0 2.344ZM98.828 96.145h-21.81a1.172 1.172 0 0 1-1.172-1.172V73.068c0-.647.525-1.172 1.172-1.172h21.81c.647 0 1.172.524 1.172 1.172v21.905c0 .647-.525 1.172-1.172 1.172ZM78.19 93.8h19.466V74.24H78.19V93.8Z"></path>
      <path d="M90.734 78.507h-5.621a1.172 1.172 0 0 1 0-2.344h5.62a1.172 1.172 0 0 1 0 2.344ZM16.692 96.145H1.172A1.172 1.172 0 0 1 0 94.973v-32.26c0-.646.525-1.171 1.172-1.171h15.52c.647 0 1.172.524 1.172 1.172v32.259c0 .647-.525 1.172-1.172 1.172ZM2.344 93.8H15.52V63.886H2.344V93.8Z"></path>
      <path d="M32.212 96.145h-15.52a1.172 1.172 0 0 1-1.172-1.172v-32.26c0-.646.525-1.171 1.172-1.171h15.52c.647 0 1.172.524 1.172 1.172v32.259c0 .647-.525 1.172-1.172 1.172ZM17.864 93.8H31.04V63.886H17.864V93.8Z"></path>
      <path d="M20.398 81.966a1.172 1.172 0 0 1-1.172-1.172v-3.901a1.172 1.172 0 0 1 2.343 0v3.901c0 .647-.524 1.172-1.171 1.172ZM12.986 81.966a1.172 1.172 0 0 1-1.171-1.172v-3.901a1.172 1.172 0 0 1 2.343 0v3.901c0 .647-.524 1.172-1.171 1.172ZM32.212 63.886H1.172A1.172 1.172 0 0 1 0 62.714V51.162c0-.647.525-1.172 1.172-1.172h31.04c.647 0 1.172.525 1.172 1.172v11.552c0 .647-.525 1.172-1.172 1.172ZM2.344 61.542H31.04v-9.208H2.344v9.208ZM66.467 27.777H33.533a2.496 2.496 0 0 1-2.493-2.493V21.92a2.495 2.495 0 0 1 2.493-2.493h32.934a2.496 2.496 0 0 1 2.493 2.493v3.365a2.496 2.496 0 0 1-2.493 2.493ZM33.533 21.77a.15.15 0 0 0-.15.149v3.365a.15.15 0 0 0 .15.15h32.934a.15.15 0 0 0 .15-.15V21.92a.15.15 0 0 0-.15-.15H33.533Z"></path>
      <path d="M64.024 21.77H35.976a2.47 2.47 0 0 1-1.522-4.414l.9-.705A14.668 14.668 0 0 0 41.02 5.028c0-.648.525-1.172 1.172-1.172h15.618c.647 0 1.172.524 1.172 1.172a14.667 14.667 0 0 0 5.664 11.623l.9.705a2.469 2.469 0 0 1-1.52 4.414ZM43.324 6.2a16.984 16.984 0 0 1-6.525 12.297l-.9.704a.126.126 0 0 0 .077.225h28.048a.126.126 0 0 0 .078-.224l-.9-.705A16.984 16.984 0 0 1 56.675 6.2H43.324ZM95.2 27.777H76.552a2.937 2.937 0 0 1 0-5.874H95.2a2.937 2.937 0 1 1 0 5.874Zm-18.648-3.53a.593.593 0 0 0 0 1.186H95.2a.593.593 0 0 0 0-1.186H76.552ZM23.448 27.777H4.8a2.937 2.937 0 0 1 0-5.874h18.648a2.937 2.937 0 1 1 0 5.874ZM4.8 24.247a.593.593 0 1 0 0 1.186h18.648a.593.593 0 1 0 0-1.186H4.8Z"></path>
      <path d="M21.577 24.247H16.81a1.172 1.172 0 0 1-1.171-1.172v-4.029c0-.647.524-1.171 1.171-1.171h4.767c.647 0 1.172.524 1.172 1.171v4.03c0 .646-.524 1.171-1.172 1.171Zm-3.595-2.344h2.424v-1.685h-2.424v1.685Z"></path>
      <path d="M22.7 20.218h-7.013a1.172 1.172 0 0 1 0-2.343h7.014a1.172 1.172 0 0 1 0 2.343ZM11.438 24.247H6.67A1.172 1.172 0 0 1 5.5 23.075v-4.029c0-.647.524-1.171 1.171-1.171h4.768c.647 0 1.171.524 1.171 1.171v4.03c0 .646-.524 1.171-1.171 1.171Zm-3.596-2.344h2.424v-1.685H7.842v1.685Z"></path>
      <path d="M12.56 20.218H5.548a1.172 1.172 0 0 1 0-2.343h7.013a1.172 1.172 0 1 1 0 2.343ZM21.577 20.218H16.81a1.172 1.172 0 0 1-1.171-1.172v-4.028c0-.648.524-1.172 1.171-1.172h4.767c.647 0 1.172.524 1.172 1.171v4.03c0 .646-.524 1.171-1.172 1.171Zm-3.595-2.344h2.424V16.19h-2.424v1.685Z"></path>
      <path d="M22.7 16.19h-7.013a1.172 1.172 0 0 1 0-2.344h7.014a1.172 1.172 0 0 1 0 2.343ZM11.438 20.218H6.67A1.172 1.172 0 0 1 5.5 19.046v-4.028c0-.648.524-1.172 1.171-1.172h4.768c.647 0 1.171.524 1.171 1.171v4.03c0 .646-.524 1.171-1.171 1.171Zm-3.596-2.344h2.424V16.19H7.842v1.685Z"></path>
      <path d="M12.56 16.19H5.548a1.172 1.172 0 0 1 0-2.344h7.013a1.172 1.172 0 1 1 0 2.343ZM85.876 24.247a7.564 7.564 0 0 1-6.405-11.587c.215-.34.59-.548.992-.548H91.29c.402 0 .776.207.991.548a7.564 7.564 0 0 1-6.404 11.587Zm-4.721-9.79a5.22 5.22 0 1 0 9.443 0h-9.443Z"></path>
      <path d="M85.767 14.456a1.172 1.172 0 0 1-1.172-1.172v-7.54a1.172 1.172 0 0 1 2.344 0v7.54c0 .647-.525 1.172-1.172 1.172Z"></path>
      <path d="M85.767 14.456a1.172 1.172 0 0 1-.829-2L88.993 8.4a1.172 1.172 0 0 1 1.657 1.657l-4.055 4.055c-.22.22-.517.344-.828.343Z"></path>
      <path d="M85.767 14.456c-.31 0-.61-.123-.829-.343l-4.055-4.055a1.172 1.172 0 1 1 1.64-1.675l.017.017 4.056 4.056a1.172 1.172 0 0 1-.83 2ZM60.857 49.426h-5.715a5.877 5.877 0 0 1-5.87-5.87V40.8c0-.647.525-1.172 1.172-1.172h15.111c.648 0 1.172.525 1.172 1.172v2.755a5.877 5.877 0 0 1-5.87 5.87Zm-9.241-7.453v1.583a3.53 3.53 0 0 0 3.526 3.527h5.715a3.53 3.53 0 0 0 3.527-3.527v-1.583H51.616Z"></path>
      <path d="M67.788 44.038h-2.233a1.172 1.172 0 0 1 0-2.343h2.233a1.172 1.172 0 1 1 0 2.343ZM50.062 44.038H47.83a1.172 1.172 0 0 1 0-2.343h2.232a1.172 1.172 0 0 1 0 2.343Z"></path>
      <path d="M65.555 41.973H50.444a1.172 1.172 0 0 1-.966-1.836c1.64-2.385 4.905-3.867 8.522-3.867s6.882 1.482 8.521 3.867a1.172 1.172 0 0 1-.966 1.836Zm-11.964-2.344h8.818a10.076 10.076 0 0 0-8.818 0Z"></path>
      <path d="M56.569 38.703c-.287 0-.565-.106-.779-.297a3.329 3.329 0 1 1 4.42 0 1.172 1.172 0 1 1-1.557-1.751.985.985 0 1 0-1.305 0 1.172 1.172 0 0 1-.78 2.047ZM13.903 52.334h-4.95a1.172 1.172 0 0 1-1.172-1.172V38.575c0-.647.525-1.171 1.172-1.171h4.95c.647 0 1.172.524 1.172 1.171v12.587c0 .648-.525 1.172-1.172 1.172Zm-3.778-2.343h2.606V39.747h-2.606v10.244Z"></path>
      <path d="M8.953 52.334h-4.95a1.172 1.172 0 0 1-1.171-1.172V38.575c0-.647.524-1.171 1.171-1.171h4.95c.647 0 1.172.524 1.172 1.171v12.587c0 .648-.525 1.172-1.172 1.172Zm-3.778-2.343h2.606V39.747H5.175v10.244ZM24.774 52.334h-2.21a4.056 4.056 0 0 1-4.05-4.05v-4.11c0-.647.524-1.172 1.171-1.172h7.968c.647 0 1.172.525 1.172 1.172v4.11a4.055 4.055 0 0 1-4.05 4.05Zm-3.916-6.988v2.937a1.709 1.709 0 0 0 1.707 1.707h2.21a1.709 1.709 0 0 0 1.707-1.707v-2.937h-5.624Z"></path>
      <path d="M28.339 45.346H19a2.216 2.216 0 0 1-2.213-2.213v-1.216A2.216 2.216 0 0 1 19 39.704h9.339a2.216 2.216 0 0 1 2.213 2.213v1.215a2.216 2.216 0 0 1-2.213 2.214Zm-9.209-2.344h9.079v-.955H19.13v.955ZM77.97 52.334h-6.034a1.172 1.172 0 0 1-1.172-1.172v-8.246c0-.647.525-1.172 1.172-1.172h6.034c.647 0 1.172.524 1.172 1.172v8.246c0 .648-.525 1.172-1.172 1.172Zm-4.862-2.344h3.69v-5.902h-3.69v5.902Z"></path>
      <path d="M77.97 44.087h-6.034a1.172 1.172 0 0 1-1.172-1.171v-3.603c0-.647.525-1.172 1.172-1.172h6.034c.647 0 1.172.525 1.172 1.172v3.603c0 .647-.525 1.172-1.172 1.172Zm-4.862-2.343h3.69v-1.259h-3.69v1.259ZM92.437 48.37c-1.915 0-3.414-1.842-3.414-4.195s1.5-4.196 3.414-4.196c1.915 0 3.414 1.843 3.414 4.196 0 2.353-1.5 4.196-3.414 4.196Zm0-6.047c-.505 0-1.07.792-1.07 1.852s.565 1.852 1.07 1.852c.505 0 1.07-.792 1.07-1.852s-.565-1.852-1.07-1.852Z"></path>
      <path d="M92.437 42.3c-.546 0-1.02-.377-1.142-.91l-1.791-7.813a3.01 3.01 0 1 1 5.867 0l-1.792 7.813c-.122.533-.596.91-1.142.91Zm0-10.061a.666.666 0 0 0-.649.814l.649 2.83.649-2.83a.666.666 0 0 0-.65-.814ZM84.008 42.3c-.546 0-1.02-.377-1.142-.91l-1.792-7.813a3.01 3.01 0 1 1 5.867 0L85.15 41.39c-.122.533-.596.91-1.142.91Zm0-10.061a.666.666 0 0 0-.649.814l.649 2.831.649-2.83a.666.666 0 0 0-.65-.815Z"></path>
      <path d="M86.7 46.088h-5.385a1.172 1.172 0 0 1-1.16-1.006 4.714 4.714 0 0 1 1.083-3.765c.757-.873 1.767-1.374 2.77-1.374 1.003 0 2.013.5 2.77 1.374a4.714 4.714 0 0 1 1.083 3.765 1.172 1.172 0 0 1-1.16 1.006Zm-4.165-2.344h2.945a2.274 2.274 0 0 0-.473-.892c-.298-.343-.69-.566-1-.566-.308 0-.7.222-.998.566a2.277 2.277 0 0 0-.474.892Z"></path>
    </g>
    <defs>
      <clipPath id="a">
        <path fill="#fff" d="M0 0h100v100H0z"></path>
      </clipPath>
    </defs>
  </symbol>
  <symbol fill="none" xmlns="http://www.w3.org/2000/svg" viewBox="0 0 100 100" id="living-room 1">
    <g clip-path="url(#a)" fill="#1E2E36">
      <path d="M46.666 87.18H16.765a4.511 4.511 0 0 1-4.507-4.507V71.057a4.512 4.512 0 0 1 4.507-4.507h29.9a4.512 4.512 0 0 1 4.507 4.507v11.616a4.511 4.511 0 0 1-4.506 4.506ZM16.765 68.893a2.165 2.165 0 0 0-2.163 2.163v11.615a2.165 2.165 0 0 0 2.163 2.163h29.9a2.165 2.165 0 0 0 2.163-2.162V71.056a2.165 2.165 0 0 0-2.163-2.163h-29.9Z"></path>
      <path d="M10.095 87.18H4.506A4.512 4.512 0 0 1 0 82.672V60.436a4.512 4.512 0 0 1 4.506-4.507h5.59a4.511 4.511 0 0 1 4.506 4.507v22.237a4.511 4.511 0 0 1-4.507 4.506ZM4.506 58.272a2.165 2.165 0 0 0-2.162 2.163v22.237a2.165 2.165 0 0 0 2.162 2.162h5.59a2.165 2.165 0 0 0 2.162-2.162V60.436a2.165 2.165 0 0 0-2.163-2.163H4.506Z"></path>
      <path d="M86.57 78.037H13.43a1.172 1.172 0 0 1 0-2.344h73.14a1.172 1.172 0 1 1 0 2.344ZM46.666 68.894H16.765a4.511 4.511 0 0 1-4.507-4.506V46.54a4.511 4.511 0 0 1 4.507-4.507h29.9a4.511 4.511 0 0 1 4.507 4.507v17.847a4.511 4.511 0 0 1-4.506 4.506ZM16.765 44.378a2.165 2.165 0 0 0-2.163 2.162v17.847a2.165 2.165 0 0 0 2.163 2.163h29.9a2.165 2.165 0 0 0 2.163-2.163V46.541a2.165 2.165 0 0 0-2.163-2.163h-29.9Z"></path>
      <path d="M83.235 68.894h-29.9a4.511 4.511 0 0 1-4.507-4.506V46.54a4.511 4.511 0 0 1 4.506-4.507h29.901a4.511 4.511 0 0 1 4.507 4.507v17.847a4.511 4.511 0 0 1-4.507 4.506Zm-29.9-24.516a2.165 2.165 0 0 0-2.163 2.162v17.847a2.165 2.165 0 0 0 2.163 2.163h29.9a2.165 2.165 0 0 0 2.163-2.163V46.541a2.165 2.165 0 0 0-2.163-2.163h-29.9Z"></path>
      <path d="M83.235 87.18h-29.9a4.511 4.511 0 0 1-4.507-4.507V71.057a4.512 4.512 0 0 1 4.506-4.507h29.901a4.512 4.512 0 0 1 4.507 4.507v11.616a4.511 4.511 0 0 1-4.507 4.506Zm-29.9-18.286a2.165 2.165 0 0 0-2.163 2.163v11.615a2.165 2.165 0 0 0 2.163 2.163h29.9a2.165 2.165 0 0 0 2.163-2.162V71.056a2.165 2.165 0 0 0-2.163-2.163h-29.9Z"></path>
      <path d="M95.493 87.18h-5.588a4.512 4.512 0 0 1-4.507-4.507V60.436a4.511 4.511 0 0 1 4.507-4.507h5.588A4.512 4.512 0 0 1 100 60.436v22.237a4.512 4.512 0 0 1-4.507 4.506Zm-5.588-28.907a2.165 2.165 0 0 0-2.163 2.163v22.237a2.165 2.165 0 0 0 2.162 2.162h5.59a2.165 2.165 0 0 0 2.162-2.162V60.436a2.165 2.165 0 0 0-2.163-2.163h-5.588ZM52.74 68.894h-5.48a1.172 1.172 0 0 1 0-2.344h5.48a1.172 1.172 0 0 1 0 2.344ZM71.45 38.639h-42.9a1.172 1.172 0 0 1-1.172-1.172V9.625c0-.647.524-1.172 1.171-1.172H71.45c.648 0 1.172.525 1.172 1.172v27.842c0 .647-.524 1.172-1.172 1.172Zm-41.729-2.344H70.28V10.797H29.722v25.498Z"></path>
      <path d="M67.547 34.735H32.453a1.172 1.172 0 0 1-1.172-1.172V13.528c0-.647.525-1.172 1.172-1.172h35.094c.647 0 1.172.525 1.172 1.172v20.035c0 .647-.525 1.172-1.172 1.172Zm-33.922-2.344h32.75v-17.69h-32.75v17.69Z"></path>
      <path d="M36.654 30.44a1.172 1.172 0 0 1-.83-2l6.027-6.027a1.172 1.172 0 0 1 1.657 0l3.657 3.657a1.172 1.172 0 0 1-1.657 1.657l-2.828-2.828-5.198 5.198c-.22.22-.518.343-.828.343Z"></path>
      <path d="M63.346 30.38c-.31 0-.61-.123-.828-.343l-4.279-4.28c-1.605-1.604-3.21-3.209-4.813-4.814l-.752-.751-.71-.71-6.522 6.522a1.172 1.172 0 0 1-1.657-1.658l7.35-7.35a1.172 1.172 0 0 1 1.659.001 856.7 856.7 0 0 0 1.537 1.537l.753.752c1.603 1.605 3.207 3.21 4.813 4.813 1.425 1.427 2.85 2.854 4.278 4.28a1.172 1.172 0 0 1-.829 2Z"></path>
      <path d="M59.069 26.1c-.31 0-.609-.123-.829-.343-1.607-1.604-3.212-3.21-4.814-4.814a1.172 1.172 0 0 1-.256-1.273 4.862 4.862 0 1 1 6.343 6.343c-.141.058-.292.087-.444.087Zm-3.351-6.179c1.18 1.182 2.362 2.363 3.544 3.545a2.52 2.52 0 1 0-3.544-3.545ZM92.699 91.547a3.078 3.078 0 0 1-2.992-2.337l-.728-2.92a1.172 1.172 0 0 1 1.138-1.455h5.164a1.172 1.172 0 0 1 1.138 1.456l-.728 2.919a3.078 3.078 0 0 1-2.992 2.337Zm-1.082-4.368.365 1.464a.74.74 0 0 0 1.434 0l.365-1.464h-2.165ZM7.301 91.547a3.078 3.078 0 0 1-2.992-2.337l-.728-2.92a1.172 1.172 0 0 1 1.138-1.455h5.164a1.172 1.172 0 0 1 1.138 1.456l-.728 2.919A3.078 3.078 0 0 1 7.3 91.547Zm-1.082-4.368.365 1.464a.74.74 0 0 0 1.434 0l.365-1.464H6.22Z"></path>
    </g>
    <defs>
      <clipPath id="a">
        <path fill="#fff" d="M0 0h100v100H0z"></path>
      </clipPath>
    </defs>
  </symbol>
  <symbol fill="none" xmlns="http://www.w3.org/2000/svg" viewBox="0 0 24 24" id="map-pin">
    <path fill-rule="evenodd" clip-rule="evenodd" d="M12 1.75A8.25 8.25 0 0 0 3.75 10c0 3.198 2.074 6.266 4.294 8.61A29.677 29.677 0 0 0 12 22.082a29.672 29.672 0 0 0 3.956-3.473c2.22-2.344 4.294-5.412 4.294-8.61A8.25 8.25 0 0 0 12 1.75ZM12 23l-.416.624-.003-.002-.006-.004-.022-.015a11.758 11.758 0 0 1-.379-.267 31.168 31.168 0 0 1-4.219-3.696C4.676 17.235 2.25 13.803 2.25 10a9.75 9.75 0 0 1 19.5 0c0 3.802-2.426 7.234-4.706 9.64a31.173 31.173 0 0 1-4.218 3.697 18.242 18.242 0 0 1-.379.266l-.022.015-.006.004-.002.001s-.001.001-.417-.623Zm0 0 .416.624a.75.75 0 0 1-.832 0L12 23Z" fill="#fff"></path>
    <path fill-rule="evenodd" clip-rule="evenodd" d="M12 7.75a2.25 2.25 0 1 0 0 4.5 2.25 2.25 0 0 0 0-4.5ZM8.25 10a3.75 3.75 0 1 1 7.5 0 3.75 3.75 0 0 1-7.5 0Z" fill="#fff"></path>
  </symbol>
  <symbol fill="none" xmlns="http://www.w3.org/2000/svg" viewBox="0 0 30 31" id="shopping-cart 1">
    <g clip-path="url(#a)" fill-rule="evenodd" clip-rule="evenodd" fill="#1E2E36">
      <path d="M11.25 26.438a.312.312 0 1 0 0 .624.312.312 0 0 0 0-.625Zm-2.188.312a2.188 2.188 0 1 1 4.376 0 2.188 2.188 0 0 1-4.376 0ZM25 26.438a.312.312 0 1 0 0 .624.312.312 0 0 0 0-.625Zm-2.188.312a2.188 2.188 0 1 1 4.376 0 2.188 2.188 0 0 1-4.375 0ZM.313 1.75c0-.518.42-.938.937-.938h5c.447 0 .832.316.92.754l1.1 5.496h20.48a.938.938 0 0 1 .92 1.114l-2 10.494a3.437 3.437 0 0 1-3.428 2.767H12.108a3.438 3.438 0 0 1-3.427-2.766L6.59 8.23a.932.932 0 0 1-.018-.089L5.482 2.687H1.25a.938.938 0 0 1-.938-.937Zm8.332 7.188 1.875 9.367a1.563 1.563 0 0 0 1.562 1.258H24.268a1.562 1.562 0 0 0 1.562-1.255v-.003l1.787-9.367H8.645Z"></path>
    </g>
    <defs>
      <clipPath id="a">
        <path fill="#fff" transform="translate(0 .5)" d="M0 0h30v30H0z"></path>
      </clipPath>
    </defs>
  </symbol>
  <symbol fill="none" xmlns="http://www.w3.org/2000/svg" viewBox="0 0 24 24" id="smartphone 1">
    <path d="M17 2H7a2 2 0 0 0-2 2v16a2 2 0 0 0 2 2h10a2 2 0 0 0 2-2V4a2 2 0 0 0-2-2ZM12 18h.01" stroke="#1E2E36" stroke-width="1.5" stroke-linecap="round" stroke-linejoin="round"></path>
  </symbol>
  <symbol fill="none" xmlns="http://www.w3.org/2000/svg" viewBox="0 0 40 40" id="Telegram">
    <path fill-rule="evenodd" clip-rule="evenodd" d="M16.674 24.069v-.001l9.273-8.369c.407-.361-.089-.537-.629-.21L13.873 22.71l-4.944-1.543c-1.068-.327-1.076-1.06.24-1.588l19.264-7.428c.88-.4 1.73.211 1.394 1.558l-3.281 15.46c-.23 1.099-.893 1.362-1.813.854l-4.998-3.692-2.402 2.336-.022.022c-.269.261-.491.478-.978.478l.34-5.098Z" fill="#1E2E36"></path>
  </symbol>
  <symbol fill="none" xmlns="http://www.w3.org/2000/svg" viewBox="0 0 20 21" id="Vector2">
    <path d="M11.107 0C6.03 1.728 1.747 5.25 0 10.5c1.726 5.19 5.97 8.752 11.107 10.5 4.569-3.554 7.06-6.409 8.893-10.5-2.63-1.782-3.736-2.7-5.869-5.458-2.857 1.34-5.345 2.9-7.548 5.401.79 1.137 2.104 2.197 3.165 3.07 1.547-1.148 2.727-2.266 3.49-3.225.48.591 1.02.984 1.535 1.313-1.33 2.281-2.821 3.534-4.663 4.73-2.767-1.477-4.99-4.035-6.072-6.198 2.026-3.371 5.204-5.647 8.815-6.915C12.268 2.184 11.5 1.22 11.107 0Z" fill="#FFD001"></path>
  </symbol>
  <symbol fill="none" xmlns="http://www.w3.org/2000/svg" viewBox="0 0 100 100" id="wardrobe (1) 1">
    <g clip-path="url(#a)" fill="#1E2E36">
      <path d="M93.545 42.075H6.455a1.172 1.172 0 0 1-1.172-1.172V15.43c0-.647.525-1.172 1.172-1.172h87.09c.647 0 1.172.524 1.172 1.172v25.472c0 .647-.525 1.172-1.172 1.172ZM7.627 39.73h84.746V16.602H7.627v23.129Z"></path>
      <path d="M93.545 67.547H6.455a1.172 1.172 0 0 1-1.172-1.172V40.903c0-.648.525-1.172 1.172-1.172h87.09c.647 0 1.172.524 1.172 1.172v25.472c0 .647-.525 1.172-1.172 1.172ZM7.627 65.203h84.746V42.075H7.627v23.128Z"></path>
      <path d="M93.545 93.019H6.455a1.172 1.172 0 0 1-1.172-1.172V66.375c0-.647.525-1.172 1.172-1.172h87.09c.647 0 1.172.525 1.172 1.172v25.472c0 .647-.525 1.172-1.172 1.172ZM7.627 90.675h84.746V67.547H7.627v23.128ZM52.192 29.339h-4.384a1.172 1.172 0 1 1 0-2.344h4.384a1.172 1.172 0 0 1 0 2.344ZM52.192 54.81h-4.384a1.172 1.172 0 1 1 0-2.343h4.384a1.172 1.172 0 0 1 0 2.344Z"></path>
      <path d="M52.192 80.283h-4.384a1.172 1.172 0 1 1 0-2.344h4.384a1.172 1.172 0 0 1 0 2.344ZM96.875 16.603H3.125A3.129 3.129 0 0 1 0 13.478v-3.372a3.129 3.129 0 0 1 3.125-3.125h93.75A3.129 3.129 0 0 1 100 10.106v3.372a3.129 3.129 0 0 1-3.125 3.125ZM3.125 9.325c-.431 0-.78.35-.781.781v3.372c0 .43.35.78.781.78h93.75c.431 0 .78-.35.781-.78v-3.372c0-.431-.35-.78-.781-.781H3.125Z"></path>
    </g>
    <defs>
      <clipPath id="a">
        <path fill="#fff" d="M0 0h100v100H0z"></path>
      </clipPath>
    </defs>
  </symbol>
  <symbol fill="none" xmlns="http://www.w3.org/2000/svg" viewBox="0 0 24 24" id="calendar">
    <path fill-rule="evenodd" clip-rule="evenodd" d="M5 4.75c-.69 0-1.25.56-1.25 1.25v14c0 .69.56 1.25 1.25 1.25h14c.69 0 1.25-.56 1.25-1.25V6c0-.69-.56-1.25-1.25-1.25H5ZM2.25 6A2.75 2.75 0 0 1 5 3.25h14A2.75 2.75 0 0 1 21.75 6v14A2.75 2.75 0 0 1 19 22.75H5A2.75 2.75 0 0 1 2.25 20V6Z" fill="#fff"></path>
    <path fill-rule="evenodd" clip-rule="evenodd" d="M16 1.25a.75.75 0 0 1 .75.75v4a.75.75 0 0 1-1.5 0V2a.75.75 0 0 1 .75-.75ZM8 1.25a.75.75 0 0 1 .75.75v4a.75.75 0 0 1-1.5 0V2A.75.75 0 0 1 8 1.25ZM2.25 10A.75.75 0 0 1 3 9.25h18a.75.75 0 0 1 0 1.5H3a.75.75 0 0 1-.75-.75Z" fill="#fff"></path>
  </symbol>
</svg>