<svg aria-hidden="true" style="position: absolute; width: 0; height: 0; overflow: hidden;" version="1.1" xmlns="http://www.w3.org/2000/svg" xmlns:xlink="http://www.w3.org/1999/xlink">
<defs>
<symbol id="icon-phone" viewBox="0 0 32 32">
<path fill="none"   stroke-linejoin="round" stroke-linecap="round" stroke-miterlimit="4" stroke-width="2" d="M22.667 2.667h-13.333c-1.473 0-2.667 1.194-2.667 2.667v21.333c0 1.473 1.194 2.667 2.667 2.667h13.333c1.473 0 2.667-1.194 2.667-2.667v-21.333c0-1.473-1.194-2.667-2.667-2.667z"></path>
<path    stroke-linejoin="round" stroke-linecap="round" stroke-miterlimit="4" stroke-width="2" d="M16 24h0.013"></path>
</symbol>
<symbol id="icon-location" viewBox="0 0 27 32">
<path  d="M13.333 2.333c-2.917 0-5.715 1.159-7.778 3.222s-3.222 4.861-3.222 7.778c0 4.265 2.766 8.354 5.726 11.479 1.46 1.541 2.923 2.801 4.022 3.676 0.51 0.406 0.939 0.728 1.252 0.955 0.313-0.227 0.742-0.549 1.252-0.955 1.099-0.875 2.562-2.135 4.022-3.676 2.96-3.125 5.726-7.214 5.726-11.479 0-2.917-1.159-5.715-3.222-7.778s-4.861-3.222-7.778-3.222zM13.333 30.667c-0.555 0.832-0.555 0.832-0.555 0.832l-0.041-0.028c-0.025-0.017-0.061-0.042-0.108-0.074-0.093-0.064-0.227-0.159-0.397-0.281-0.339-0.245-0.821-0.603-1.397-1.062-1.151-0.916-2.688-2.239-4.228-3.865-3.040-3.209-6.274-7.786-6.274-12.854 0-3.448 1.37-6.754 3.808-9.192s5.745-3.808 9.192-3.808c3.448 0 6.754 1.37 9.192 3.808s3.808 5.745 3.808 9.192c0 5.069-3.234 9.646-6.274 12.854-1.54 1.626-3.077 2.949-4.228 3.865-0.576 0.459-1.057 0.817-1.397 1.062-0.17 0.123-0.304 0.217-0.397 0.281-0.047 0.032-0.083 0.057-0.108 0.074l-0.038 0.025-0.003 0.002c0 0-0.001 0.001-0.556-0.831zM13.333 30.667l0.555 0.832c-0.336 0.224-0.774 0.224-1.11-0l0.555-0.832z"></path>
<path  d="M13.333 10.333c-1.657 0-3 1.343-3 3s1.343 3 3 3c1.657 0 3-1.343 3-3s-1.343-3-3-3zM8.333 13.333c0-2.761 2.239-5 5-5s5 2.239 5 5c0 2.761-2.239 5-5 5s-5-2.239-5-5z"></path>
</symbol>
<symbol id="icon-time" viewBox="0 0 29 32">
<path  d="M4.364 5.455c-1.004 0-1.818 0.814-1.818 1.818v20.364c0 1.004 0.814 1.818 1.818 1.818h20.364c1.004 0 1.818-0.814 1.818-1.818v-20.364c0-1.004-0.814-1.818-1.818-1.818h-20.364zM0.364 7.273c0-2.209 1.791-4 4-4h20.364c2.209 0 4 1.791 4 4v20.364c0 2.209-1.791 4-4 4h-20.364c-2.209 0-4-1.791-4-4v-20.364z"></path>
<path  d="M20.364 0.364c0.602 0 1.091 0.488 1.091 1.091v5.818c0 0.603-0.488 1.091-1.091 1.091s-1.091-0.488-1.091-1.091v-5.818c0-0.603 0.488-1.091 1.091-1.091z"></path>
<path  d="M8.727 0.364c0.602 0 1.091 0.488 1.091 1.091v5.818c0 0.603-0.488 1.091-1.091 1.091s-1.091-0.488-1.091-1.091v-5.818c0-0.603 0.488-1.091 1.091-1.091z"></path>
<path  d="M0.364 13.091c0-0.602 0.488-1.091 1.091-1.091h26.182c0.602 0 1.091 0.488 1.091 1.091s-0.488 1.091-1.091 1.091h-26.182c-0.603 0-1.091-0.488-1.091-1.091z"></path>
</symbol>
</defs>
</svg>
