<svg aria-hidden="true" style="position: absolute; width: 0; height: 0; overflow: hidden;" version="1.1" xmlns="http://www.w3.org/2000/svg" xmlns:xlink="http://www.w3.org/1999/xlink">
<defs>
<symbol id="icon-living-room" viewBox="0 0 38 32">
<path d="M17.777 30.163h-11.391c-0.948-0.001-1.716-0.769-1.717-1.717v-4.425c0.001-0.948 0.769-1.716 1.717-1.717h11.391c0.948 0.001 1.716 0.769 1.717 1.717v4.425c-0.001 0.948-0.769 1.716-1.717 1.717zM6.387 23.198c-0.455 0.001-0.823 0.369-0.824 0.824v4.425c0 0.455 0.369 0.823 0.824 0.824h11.391c0.455-0.001 0.823-0.369 0.824-0.824v-4.425c-0-0.455-0.369-0.823-0.824-0.824h-11.391z"></path>
<path d="M3.846 30.163h-2.129c-0.948-0.001-1.716-0.769-1.717-1.717v-8.471c0.001-0.948 0.769-1.716 1.717-1.717h2.129c0.948 0.001 1.716 0.769 1.717 1.717v8.471c-0.001 0.948-0.769 1.716-1.717 1.717zM1.717 19.152c-0.455 0-0.823 0.369-0.824 0.824v8.471c0.001 0.455 0.369 0.823 0.824 0.824h2.129c0.455-0 0.823-0.369 0.824-0.824v-8.471c-0.001-0.455-0.369-0.823-0.824-0.824h-2.129z"></path>
<path d="M32.979 26.681h-27.863c-0.247 0-0.446-0.2-0.446-0.446s0.2-0.446 0.446-0.446h27.863c0.246 0 0.446 0.2 0.446 0.446s-0.2 0.446-0.446 0.446z"></path>
<path d="M17.777 23.198h-11.391c-0.948-0.001-1.716-0.769-1.717-1.717v-6.799c0.001-0.948 0.769-1.716 1.717-1.717h11.391c0.948 0.001 1.716 0.769 1.717 1.717v6.799c-0.001 0.948-0.769 1.716-1.717 1.717zM6.387 13.858c-0.455 0.001-0.823 0.369-0.824 0.824v6.799c0 0.455 0.369 0.823 0.824 0.824h11.391c0.455-0.001 0.823-0.369 0.824-0.824v-6.799c-0-0.455-0.369-0.823-0.824-0.824l-11.391-0z"></path>
<path d="M31.709 23.198h-11.391c-0.948-0.001-1.716-0.769-1.717-1.717v-6.799c0.001-0.948 0.769-1.716 1.717-1.717h11.391c0.948 0.001 1.716 0.769 1.717 1.717v6.799c-0.001 0.948-0.769 1.716-1.717 1.717zM20.318 13.858c-0.455 0.001-0.823 0.369-0.824 0.824v6.799c0 0.455 0.369 0.823 0.824 0.824h11.391c0.455-0.001 0.823-0.369 0.824-0.824v-6.799c-0.001-0.455-0.369-0.823-0.824-0.824l-11.391-0z"></path>
<path d="M31.709 30.163h-11.391c-0.948-0.001-1.716-0.769-1.717-1.717v-4.425c0.001-0.948 0.769-1.716 1.717-1.717h11.391c0.948 0.001 1.716 0.769 1.717 1.717v4.425c-0.001 0.948-0.769 1.716-1.717 1.717zM20.318 23.198c-0.455 0.001-0.823 0.369-0.824 0.824v4.425c0 0.455 0.369 0.823 0.824 0.824h11.391c0.455-0.001 0.823-0.369 0.824-0.824v-4.425c-0.001-0.455-0.369-0.823-0.824-0.824h-11.391z"></path>
<path d="M36.378 30.163h-2.129c-0.948-0.001-1.716-0.769-1.717-1.717v-8.471c0.001-0.948 0.769-1.716 1.717-1.717h2.129c0.948 0.001 1.716 0.769 1.717 1.717v8.471c-0.001 0.948-0.769 1.716-1.717 1.717zM34.249 19.152c-0.455 0-0.823 0.369-0.824 0.824v8.471c0.001 0.455 0.369 0.823 0.824 0.824h2.129c0.455-0 0.823-0.369 0.824-0.824v-8.471c-0.001-0.455-0.369-0.823-0.824-0.824h-2.129z"></path>
<path d="M20.091 23.198h-2.087c-0.247 0-0.446-0.2-0.446-0.446s0.2-0.446 0.446-0.446h2.087c0.247 0 0.446 0.2 0.446 0.446s-0.2 0.446-0.446 0.446z"></path>
<path d="M27.219 11.672h-16.343c-0.246 0-0.446-0.2-0.446-0.446v-10.607c0-0.247 0.2-0.446 0.446-0.446h16.343c0.247 0 0.446 0.2 0.446 0.446v10.607c0 0.246-0.2 0.446-0.446 0.446zM11.322 10.779h15.45v-9.714h-15.45v9.714z"></path>
<path d="M25.732 10.185h-13.369c-0.247 0-0.446-0.2-0.446-0.446v-7.632c0-0.247 0.2-0.446 0.446-0.446h13.369c0.247 0 0.446 0.2 0.446 0.446v7.632c-0 0.247-0.2 0.446-0.446 0.446zM12.81 9.292h12.476v-6.739h-12.476v6.739z"></path>
<path d="M13.963 8.549c-0.247 0-0.446-0.2-0.446-0.446 0-0.118 0.047-0.232 0.131-0.316l2.296-2.296c0.174-0.174 0.457-0.174 0.631 0l1.393 1.393c0.174 0.174 0.174 0.457 0 0.631s-0.457 0.174-0.631 0l-1.078-1.077-1.98 1.98c-0.084 0.084-0.197 0.131-0.316 0.131z"></path>
<path d="M24.132 8.526c-0.118 0-0.232-0.047-0.316-0.131-0.543-0.543-1.086-1.087-1.63-1.63-0.612-0.611-1.223-1.222-1.834-1.834l-0.286-0.286c-0.090-0.090-0.18-0.18-0.271-0.27l-2.485 2.485c-0.174 0.174-0.457 0.174-0.631 0s-0.174-0.457 0-0.631l2.8-2.8c0.084-0.084 0.197-0.131 0.316-0.131h0c0.119 0 0.232 0.047 0.316 0.131 0.195 0.195 0.39 0.391 0.585 0.586l0.287 0.287c0.611 0.611 1.222 1.223 1.834 1.834 0.543 0.543 1.086 1.087 1.63 1.63 0.174 0.174 0.174 0.457 0 0.631-0.084 0.084-0.197 0.131-0.316 0.131z"></path>
<path d="M22.502 6.895c-0.118 0-0.232-0.047-0.316-0.131-0.612-0.611-1.224-1.223-1.834-1.834-0.127-0.127-0.165-0.318-0.097-0.485 0.388-0.947 1.47-1.399 2.416-1.012s1.399 1.47 1.012 2.416c-0.188 0.459-0.552 0.823-1.012 1.011-0.054 0.022-0.111 0.033-0.169 0.033zM21.226 4.541c0.45 0.45 0.9 0.9 1.35 1.35 0.41-0.335 0.471-0.94 0.136-1.35s-0.94-0.471-1.35-0.136c-0.050 0.041-0.095 0.086-0.136 0.136z"></path>
<path d="M35.314 31.827c-0.539 0.001-1.010-0.367-1.14-0.89l-0.277-1.112c-0.060-0.239 0.086-0.482 0.325-0.541 0.035-0.009 0.072-0.013 0.108-0.013h1.968c0.246 0 0.446 0.2 0.446 0.446 0 0.036-0.004 0.073-0.013 0.108l-0.277 1.112c-0.13 0.524-0.6 0.891-1.14 0.89zM34.902 30.163l0.139 0.558c0.038 0.151 0.19 0.243 0.341 0.205 0.101-0.025 0.18-0.104 0.205-0.205l0.139-0.558-0.825 0z"></path>
<path d="M2.781 31.827c-0.539 0.001-1.010-0.367-1.14-0.89l-0.277-1.112c-0.060-0.239 0.086-0.482 0.325-0.541 0.035-0.009 0.072-0.013 0.108-0.013h1.968c0.247 0 0.446 0.2 0.446 0.446 0 0.036-0.004 0.073-0.013 0.108l-0.277 1.112c-0.13 0.524-0.6 0.891-1.14 0.89zM2.369 30.163l0.139 0.558c0.038 0.151 0.19 0.243 0.341 0.205 0.101-0.025 0.18-0.104 0.205-0.205l0.139-0.558-0.825 0z"></path>
</symbol>
</defs>
</svg>
